<svg width="106" height="80" viewBox="0 0 106 80" fill="none" xmlns="http://www.w3.org/2000/svg">
<g clip-path="url(#clip0_1_1141)">
<path d="M-0.000321394 65.813C1.92128 65.813 3.84289 65.813 5.76286 65.79C6.15469 65.79 6.29672 65.9097 6.26734 66.3015C6.23795 66.6932 6.26734 67.0735 6.26734 67.4784C6.00775 67.5686 5.86245 67.562 5.78571 67.2391C5.62245 66.5834 5.40531 66.4015 4.72287 66.3752C4.04043 66.349 3.3531 66.3752 2.66739 66.3605C2.43719 66.3605 2.35066 66.4457 2.3523 66.6768C2.3523 67.5276 2.3523 68.3783 2.3523 69.3193C3.12126 69.2848 3.87717 69.3012 4.61512 69.1881C4.83226 69.1553 4.99225 68.7586 5.18327 68.5324C5.26654 68.4357 5.36123 68.3488 5.45102 68.257C5.51306 68.3702 5.62572 68.4816 5.62898 68.5964C5.64857 69.252 5.65184 69.9077 5.63878 70.5634C5.63878 70.665 5.53266 70.7667 5.47551 70.8683C5.37919 70.7814 5.21756 70.7044 5.19797 70.6077C5.10817 70.1585 4.85348 69.9094 4.40777 69.8979C3.74003 69.8799 3.07229 69.8979 2.36373 69.8979C2.36373 70.8093 2.3474 71.7158 2.38495 72.6206C2.38495 72.7419 2.66413 72.9485 2.8176 72.9485C3.56044 72.9599 4.30655 72.9485 5.04613 72.8862C5.68612 72.8337 6.02571 72.3567 6.26081 71.8207C6.37183 71.5748 6.51386 71.4666 6.86161 71.6043C6.71631 72.1911 6.57754 72.7927 6.40611 73.3861C6.38325 73.4615 6.19224 73.532 6.07959 73.5337C4.05349 73.5337 2.0274 73.5337 0.00294456 73.5337V73.2648C0.0480705 73.2267 0.0987202 73.1958 0.153146 73.173C0.979256 72.9796 0.990686 72.9763 0.993951 72.1108C1.00048 70.5437 1.00048 68.9761 0.993951 67.4079C0.993951 66.4244 0.993949 66.4244 0.0682487 66.1359C0.0423931 66.1213 0.0187528 66.1031 -0.00195312 66.0818L-0.000321394 65.813Z" fill="#AE894C"/>
<path d="M56.3398 79.9967C56.3638 79.9235 56.3921 79.8518 56.4247 79.782C56.5015 79.6377 56.6468 79.4984 56.6533 79.3541C56.6827 78.6821 56.6909 78.0084 56.6631 77.3363C56.6631 77.1592 56.49 76.9904 56.3807 76.7871H57.6688C57.0255 77.1297 57.3586 77.651 57.29 78.1395H58.5504C58.4818 77.6723 58.7888 77.1396 58.1619 76.7921H59.4908C59.0843 77.0117 59.1529 77.3838 59.1512 77.7297C59.1512 78.2214 59.1643 78.7132 59.1512 79.205C59.1382 79.5328 59.1937 79.7984 59.6622 79.8705C59.8166 79.6666 59.9537 79.45 60.072 79.223C60.3692 78.5378 60.632 77.8395 60.9161 77.1494C60.9879 76.9855 61.0794 76.8216 61.2247 76.5527C61.3504 76.7773 61.4385 76.9052 61.4989 77.0445C61.8255 77.8133 62.1406 78.587 62.4704 79.3541C62.5167 79.4937 62.6003 79.6179 62.712 79.7131C62.7723 79.7477 62.8391 79.7695 62.9082 79.7771C62.9773 79.7847 63.0472 79.778 63.1136 79.7574C63.1663 79.726 63.2107 79.6824 63.2431 79.6302C63.2755 79.578 63.2949 79.5187 63.2997 79.4574C63.3177 78.7247 63.3291 77.992 63.2997 77.2609C63.2997 77.1101 63.1169 76.9658 62.9944 76.7855H64.3005C63.845 77.0068 63.9397 77.415 63.9365 77.7789C63.9365 78.3165 63.9609 78.8558 63.9365 79.3935C63.9169 79.7656 64.2009 79.8279 64.4099 79.8476C64.6189 79.8672 64.7887 79.6836 64.7805 79.4C64.7609 78.7444 64.7903 78.0887 64.7626 77.433C64.7626 77.233 64.6222 77.0379 64.5307 76.8003H65.7634C65.2981 76.9888 65.396 77.3871 65.3928 77.7412C65.3928 78.2936 65.3928 78.8476 65.3928 79.4C65.3928 79.6279 65.4695 79.7279 65.703 79.7279C66.183 79.7279 66.6825 79.7902 66.8915 79.1853C66.9095 79.1312 67.0221 79.1099 67.1903 79.0214L67.0058 80.0049H61.6149C61.6949 79.841 61.8581 79.6771 61.8402 79.5213C61.7798 78.9919 61.6769 78.982 60.9161 78.9394C60.4492 78.9148 60.3969 79.2263 60.3708 79.5181C60.3561 79.6705 60.5341 79.8459 60.632 80.0098H58.2239C58.3333 79.8459 58.508 79.682 58.5374 79.5066C58.5686 79.1797 58.5735 78.8508 58.5521 78.5231H57.3504C57.2345 79.0919 57.21 79.6066 57.6868 80.0082L56.3398 79.9967ZM61.5153 78.6247C61.3847 78.2837 61.2622 77.969 61.1022 77.5559L60.6728 78.628L61.5153 78.6247Z" fill="#AE894C"/>
<path d="M67.1602 79.9968C67.6091 78.9952 68.0548 77.9936 68.5071 76.9954C68.5705 76.8852 68.6443 76.7815 68.7275 76.6855C68.8336 76.7748 68.9255 76.8799 69.0001 76.997C69.3267 77.751 69.6352 78.51 69.9536 79.2673C69.9867 79.3979 70.0474 79.5197 70.1315 79.6246C70.236 79.7197 70.4221 79.8279 70.5283 79.7886C70.6015 79.7566 70.6661 79.7077 70.7169 79.6459C70.7677 79.5841 70.8032 79.5111 70.8205 79.4329C70.8466 78.746 70.8532 78.0559 70.8205 77.3707C70.8091 77.1789 70.623 76.9954 70.5185 76.8118C71.0883 76.6036 71.3446 76.6774 71.6858 77.1494C72.0752 77.7103 72.5063 78.2408 72.9756 78.7362C72.9756 78.2444 73.005 77.7363 72.9593 77.2429C72.9462 77.0937 72.7291 76.9642 72.5707 76.7888H73.6694C73.2727 76.9839 73.3201 77.3248 73.3266 77.6642C73.3397 78.4411 73.3266 79.2181 73.338 79.9968H72.9805L71.2858 77.6461L71.1683 77.7019C71.3446 78.4641 70.8417 79.3411 71.6303 79.9968H69.2173C69.2679 79.8164 69.3805 79.6312 69.3593 79.4575C69.2989 78.8624 68.8254 79.0149 68.4434 78.9657C68.0271 78.9182 67.9536 79.228 67.9242 79.487C67.903 79.641 68.0646 79.8148 68.1446 79.9902L67.1602 79.9968ZM68.2344 78.6165H69.0377C68.9054 78.2657 68.7895 77.951 68.641 77.5576L68.2344 78.6165Z" fill="#AE894C"/>
<path d="M32.6406 79.9965C33.088 78.9835 33.532 77.9704 33.9859 76.9607C34.0517 76.8548 34.1313 76.7584 34.2226 76.6738C34.3162 76.7547 34.3971 76.8492 34.4626 76.9541C34.8088 77.7639 35.1434 78.5786 35.4765 79.3933C35.5794 79.6424 35.6887 79.867 36.0169 79.8031C36.3451 79.7392 36.3059 79.4752 36.3059 79.2376C36.3059 78.7458 36.2977 78.254 36.3059 77.7623C36.314 77.3902 36.363 77.0132 35.8667 76.846C36.5589 76.6148 36.8006 76.682 37.1646 77.1869C37.5433 77.7249 37.9493 78.2431 38.3809 78.7392C38.2618 78.1049 38.7711 77.3689 37.9907 76.8001H39.2348C38.5687 77.0754 38.7679 77.5918 38.7646 78.0311C38.7646 78.6868 38.7924 79.3425 38.8103 79.9982H38.4512L36.7483 77.6574L36.6308 77.7213C36.8446 78.4704 36.2634 79.3703 37.1108 79.9982H34.6977C34.6977 79.9424 34.67 79.8687 34.6977 79.8342C34.861 79.6047 34.83 79.1392 34.6373 79.0146C34.4447 78.89 33.6202 78.9999 33.4945 79.1785C33.2463 79.5064 33.4814 79.7506 33.63 80.0113L32.6406 79.9965ZM34.5296 78.6278C34.3941 78.2737 34.27 77.9475 34.1133 77.541L33.7018 78.6278H34.5296Z" fill="#AE894C"/>
<path d="M29.6889 79.9967C30.4383 79.1443 29.9077 78.1198 30.0465 77.1855C30.0611 77.0855 29.8424 76.9527 29.6562 76.7511C30.4481 76.7511 31.1958 76.579 31.8962 76.915C32.4203 77.1625 32.4203 77.7658 31.9664 78.2477C32.1295 78.4289 32.2694 78.6299 32.3827 78.846C32.5607 79.305 32.3517 79.6459 31.746 79.9935L29.6889 79.9967ZM30.6881 78.5214C30.6881 78.7477 30.6766 78.9837 30.6881 79.2181C30.7011 79.4132 30.5705 79.7214 30.9526 79.7C31.2709 79.6836 31.635 79.7132 31.7379 79.282C31.8848 78.6854 31.4783 78.3772 30.6881 78.5214ZM30.7093 78.2215C31.0603 78.1002 31.3624 78.0575 31.5991 77.8936C31.6954 77.8248 31.7003 77.4019 31.5991 77.3347C31.3689 77.1543 31.0554 77.0839 30.7044 76.9412L30.7093 78.2215Z" fill="#AE894C"/>
<path d="M49.1866 79.997C49.1866 79.9675 49.167 79.9166 49.1752 79.9117C49.6503 79.6757 49.5279 79.238 49.5328 78.8446C49.5377 78.4512 49.5328 78.0086 49.5328 77.5922C49.5328 77.289 49.647 76.9202 49.043 76.9152L49.1654 76.7956H50.5613C49.9181 77.0939 50.2201 77.589 50.1336 78.1332L51.1915 77.0644L50.865 76.8693L50.8764 76.7939H52.0944L50.5972 78.1365C51.1736 78.7184 51.7025 79.2478 52.2299 79.7855C52.2716 79.85 52.3009 79.9217 52.3164 79.997H50.9744L51.1262 79.5953C50.8421 79.2675 50.5499 78.92 50.2576 78.5774L50.1564 78.6299C50.225 79.0544 49.8854 79.5773 50.514 79.8691C50.5336 79.8789 50.5238 79.9527 50.527 79.997H49.1866Z" fill="#AE894C"/>
<path d="M73.7793 79.997C74.2805 79.5773 74.1172 79.0003 74.1319 78.4659C74.1515 78.1679 74.1515 77.8689 74.1319 77.5709C74.0852 77.2976 74.0209 77.0277 73.9393 76.7628C74.6168 76.7628 75.4005 76.5874 76.1401 76.9366C76.7148 77.2087 76.9205 77.7299 76.9303 78.3381C76.9417 78.9708 76.7066 79.4724 76.1417 79.7921C76.0144 79.8642 75.8837 79.9281 75.7531 79.997H73.7793ZM74.7768 77.0579C74.7768 77.8775 74.7654 78.661 74.7899 79.4364C74.7899 79.5282 74.9793 79.6822 75.087 79.6904C75.5327 79.7199 75.9344 79.5708 76.1286 79.1446C76.3752 78.602 76.3931 78.0283 76.0519 77.5152C75.7662 77.0923 75.3172 77.0038 74.7768 77.0611V77.0579Z" fill="#AE894C"/>
<path d="M42.6564 79.9964C43.2785 79.1358 42.8654 78.1605 42.9372 77.2409C42.947 77.113 42.7381 76.9671 42.5977 76.7852H44.067C43.3748 77.0737 43.6262 77.5917 43.5772 78.108L44.6237 77.1081L44.2531 76.7803H45.5788L44.0425 78.1293C44.6335 78.7211 45.1723 79.2604 45.7094 79.8013C45.7673 79.8651 45.8218 79.9318 45.8727 80.0013H44.3527L44.596 79.6046L43.6164 78.4572C43.5397 79.0932 43.4532 79.5948 43.9038 79.998L42.6564 79.9964Z" fill="#AE894C"/>
<path d="M46.7718 79.9972C46.2347 79.6234 45.8592 79.1595 45.8461 78.4596C45.8266 77.3695 46.4633 76.6417 47.4445 76.6565C48.4257 76.6712 49.0461 77.463 48.9792 78.5252C48.9367 79.1972 48.589 79.6644 48.0224 79.9906L46.7718 79.9972ZM48.3375 78.4219C48.2999 78.1456 48.2454 77.8719 48.1743 77.6023C48.0502 77.2384 47.8004 76.9679 47.389 76.9827C46.9776 76.9974 46.7359 77.2581 46.6233 77.6384C46.4518 78.2022 46.4453 78.7858 46.7327 79.2923C46.7899 79.4177 46.8809 79.5246 46.9953 79.601C47.1096 79.6774 47.2429 79.7203 47.3802 79.7249C47.5176 79.7295 47.6534 79.6956 47.7726 79.627C47.8918 79.5584 47.9896 79.4578 48.0551 79.3366C48.2281 79.0612 48.2657 78.6973 48.3375 78.4252V78.4219Z" fill="#AE894C"/>
<path d="M40.2422 79.9966C39.6479 79.5835 39.2626 79.0705 39.3084 78.2869C39.3753 77.1952 40.2716 76.4838 41.3393 76.6969C41.5754 76.7275 41.8131 76.7445 42.0512 76.7477V77.8952C41.8961 77.6689 41.8112 77.5411 41.7246 77.4198C41.2561 76.7821 40.5002 76.8411 40.1573 77.5493C40.0322 77.7975 39.9677 78.072 39.9691 78.3502C39.9706 78.6284 40.0379 78.9022 40.1655 79.1492C40.27 79.3606 40.4822 79.6196 40.6847 79.6573C40.9638 79.7114 41.3916 79.6803 41.5549 79.4934C41.8014 79.2213 41.5402 78.4918 41.2414 78.2623H42.3712C42.3075 78.5344 42.1834 78.8049 42.1997 79.0656C42.234 79.5573 42.0724 79.8639 41.5875 79.9802L40.2422 79.9966Z" fill="#AE894C"/>
<path d="M54.1931 79.9965C54.1931 79.967 54.1752 79.9162 54.1817 79.9113C54.6454 79.6949 54.5376 79.2753 54.5393 78.8966C54.5393 78.3016 54.5393 77.7066 54.5393 77.1328C53.9433 76.8657 53.8062 77.3295 53.625 77.7197L53.5254 77.6476V76.7607H56.1768C56.1915 77.0525 56.2062 77.3377 56.2209 77.6213L56.0772 77.6705C55.8715 77.3427 55.7507 76.8509 55.1548 77.1148C55.1548 77.8852 55.1466 78.6868 55.1646 79.4884C55.1646 79.5867 55.3099 79.6785 55.3833 79.7769C55.4372 79.8474 55.4846 79.9228 55.5352 79.9965H54.1931Z" fill="#AE894C"/>
<path d="M90.7734 67.3928C90.2074 68.6921 89.6436 69.9898 89.082 71.2859C88.8012 71.9285 88.5269 72.5743 88.2314 73.2103C88.1726 73.3365 88.0224 73.4202 87.9147 73.5234C87.811 73.432 87.7203 73.3266 87.6453 73.2103C86.8584 71.517 86.0829 69.8204 85.3025 68.1288C85.229 67.9649 85.1392 67.8157 85.0249 67.5731C85.0249 69.2123 85.0151 70.763 85.0249 72.3071C85.0249 72.7825 85.2747 73.089 85.7792 73.1546C85.8755 73.1677 85.9555 73.2939 86.0421 73.3693C85.9425 73.43 85.8429 73.5333 85.7417 73.5415C84.9972 73.5529 84.2527 73.5415 83.5082 73.5333C83.4282 73.5333 83.345 73.4431 83.2715 73.3956C83.3433 73.3218 83.4119 73.189 83.487 73.1857C84.1237 73.148 84.287 72.7841 84.3033 72.2022C84.3327 70.422 84.3229 68.6419 84.318 66.8617C84.318 66.4174 84.0176 66.2552 83.6274 66.1798C83.5077 66.1314 83.3972 66.0627 83.3009 65.9765C83.4168 65.9208 83.5311 65.8126 83.6503 65.8126C84.1858 65.7945 84.7229 65.8126 85.2584 65.7962C85.3815 65.7772 85.5074 65.8026 85.6135 65.8681C85.7197 65.9335 85.7992 66.0347 85.838 66.1535C86.5596 67.7616 87.3073 69.3598 88.0355 70.9613C88.0975 71.0958 88.1612 71.2302 88.2494 71.4187C88.3158 71.3126 88.3768 71.2031 88.4322 71.0908C89.1522 69.4516 89.8755 67.8124 90.5824 66.165C90.6918 65.9109 90.8191 65.7864 91.1065 65.7962C91.7024 65.8142 92.2983 65.7962 92.8942 65.8109C92.9922 65.8109 93.0885 65.929 93.1848 65.9913C93.0917 66.0585 93.0052 66.1683 92.9024 66.1847C92.3097 66.2863 92.1775 66.3879 92.1758 66.9928C92.1693 68.7872 92.178 70.5816 92.202 72.376C92.202 72.9317 92.3456 73.0464 92.9154 73.1644C93.0183 73.1857 93.1064 73.2857 93.2011 73.3497C93.1064 73.412 93.0117 73.5267 92.9154 73.5283C92.0066 73.5447 91.0978 73.5475 90.1889 73.5365C90.104 73.5365 90.0257 73.4284 89.9359 73.3726C90.011 73.3005 90.0779 73.1759 90.1612 73.1661C90.651 73.1038 90.8518 72.812 90.8518 72.3465V67.4075L90.7734 67.3928Z" fill="#AE894C"/>
<path d="M72.4439 69.891C71.3631 69.891 70.3395 69.8828 69.3158 69.9057C69.2342 69.9057 69.0889 70.1172 69.0889 70.2336C69.0889 70.9663 69.1183 71.699 69.1297 72.4317C69.1297 72.8612 69.3485 73.0874 69.7648 73.1595C69.8709 73.1792 69.9574 73.3087 70.0521 73.389C69.9476 73.4415 69.8432 73.5382 69.737 73.5398C68.844 73.553 67.9412 73.5562 67.0563 73.5398C66.955 73.5398 66.8554 73.43 66.7559 73.3759C66.8408 73.3022 66.9191 73.1825 67.0138 73.1595C67.6212 73.0136 67.7109 72.9497 67.7158 72.3219C67.7289 70.527 67.7158 68.732 67.7158 66.9371C67.7158 66.4929 67.5118 66.2437 67.0628 66.1863C66.9567 66.1716 66.8669 66.0388 66.7706 65.9601C66.8767 65.9093 66.9812 65.8142 67.0889 65.8126C67.9673 65.8028 68.8473 65.8028 69.7256 65.8126C69.8383 65.8126 69.9476 65.9323 70.0521 65.9946C69.9476 66.0634 69.8481 66.1781 69.7354 66.1945C69.4089 66.2421 69.133 66.3585 69.1264 66.724C69.1085 67.5584 69.1264 68.3927 69.1264 69.2582H72.3917C72.3917 68.3845 72.4243 67.5075 72.3623 66.6355C72.3492 66.4716 71.9492 66.3404 71.7321 66.188C71.6358 66.1224 71.5493 66.0437 71.4578 65.9716C71.5623 65.9142 71.6652 65.8077 71.7697 65.8077C72.6774 65.7946 73.5862 65.7946 74.4961 65.8077C74.5974 65.8077 74.6986 65.9126 74.7998 65.9716C74.7084 66.0405 74.6268 66.1503 74.5255 66.17C73.9313 66.288 73.7909 66.424 73.7909 67.0322C73.7909 68.7533 73.7957 70.474 73.8055 72.1941C73.8055 72.8891 73.9051 72.9776 74.5925 73.1645C74.6774 73.1874 74.7394 73.3005 74.8129 73.3726C74.7263 73.43 74.6415 73.5366 74.5549 73.5366C73.6167 73.5464 72.6779 73.5431 71.7386 73.5267C71.657 73.5267 71.5754 73.4103 71.4954 73.3481C71.5623 73.2825 71.6178 73.1841 71.6962 73.1595C72.4276 72.9137 72.4407 72.9022 72.4488 72.1383C72.4488 71.958 72.4488 71.7793 72.4488 71.599L72.4439 69.891Z" fill="#AE894C"/>
<path d="M105.173 69.8143C104.917 69.6127 104.641 69.4357 104.367 69.257C103.794 68.8833 103.196 68.5439 102.646 68.1391C102.452 68.0062 102.309 67.8106 102.241 67.5849C102.173 67.3591 102.184 67.1168 102.272 66.8982C102.468 66.4408 102.863 66.2917 103.323 66.2802C104.195 66.2556 104.894 66.8129 105.225 67.8194C105.305 68.0637 105.367 68.2489 105.74 68.0981C105.665 67.3719 105.596 66.6589 105.513 65.9491C105.507 65.9012 105.49 65.8554 105.464 65.815C105.437 65.7747 105.402 65.7409 105.361 65.7163C105.313 65.7108 105.265 65.7171 105.221 65.7349C105.176 65.7526 105.137 65.7812 105.106 65.8179C104.932 66.1179 104.706 66.0671 104.453 65.9556C104.279 65.8732 104.099 65.8047 103.914 65.7507C102.484 65.3737 101.276 66.1081 101.082 67.4752C100.954 68.3653 101.372 69.0111 102.076 69.4816C102.608 69.8373 103.185 70.1258 103.709 70.4799C103.996 70.6637 104.248 70.8967 104.455 71.1683C104.598 71.3635 104.68 71.5967 104.692 71.8387C104.704 72.0807 104.644 72.3208 104.52 72.5289C104.288 72.9469 103.867 73.0698 103.415 73.0731C103.123 73.0874 102.832 73.0315 102.566 72.9101C102.301 72.7886 102.068 72.6051 101.887 72.3748C101.641 72.0569 101.429 71.7141 101.255 71.3519C101.139 71.1159 101.021 71.0241 100.732 71.1683C100.798 71.6453 100.842 72.1338 100.933 72.6108C101.096 72.8525 101.274 73.0835 101.465 73.3026C101.745 73.3354 101.913 73.3534 102.079 73.3763C102.692 73.4649 103.305 73.6337 103.916 73.6255C104.353 73.6209 104.777 73.4787 105.128 73.219C105.48 72.9592 105.741 72.5951 105.875 72.1781C106.161 71.2388 105.96 70.4307 105.173 69.8143Z" fill="#AE894C"/>
<path d="M79.0527 73.6679C76.8372 73.6957 75.2291 72.0483 75.1997 69.7239C75.1687 67.3733 76.7245 65.7062 78.9841 65.6685C81.0951 65.6325 82.7947 67.3323 82.8175 69.5043C82.8404 71.9549 81.3171 73.6416 79.0527 73.6679ZM81.3384 69.7338C81.3969 68.9123 81.2141 68.0915 80.8127 67.3733C79.9457 65.8882 78.0764 65.8652 77.1621 67.3241C76.4062 68.5289 76.4601 70.9648 77.2682 72.1352C78.1629 73.4318 79.8657 73.4089 80.7424 72.0975C81.2437 71.3697 81.3596 70.5567 81.3433 69.7354L81.3384 69.7338Z" fill="#AE894C"/>
<path d="M10.715 70.3075C10.1403 71.0632 9.59829 71.7352 9.1036 72.4385C8.81463 72.8532 8.95176 73.0696 9.46278 73.1712C9.57994 73.2182 9.68777 73.286 9.78114 73.3712C9.67573 73.448 9.55655 73.5036 9.43013 73.5351C8.74606 73.5531 8.06035 73.5515 7.37628 73.5498C7.25057 73.5498 7.12322 73.5253 6.85547 73.4974C7.04975 73.3335 7.14118 73.2368 7.24241 73.1581C7.54281 72.9237 7.89545 72.7384 8.14198 72.4548C8.82932 71.65 9.48074 70.8156 10.1224 69.9698C10.1653 69.8959 10.1902 69.8127 10.195 69.7273C10.1998 69.6418 10.1845 69.5564 10.1501 69.478C9.5591 68.5814 8.96646 67.6749 8.31177 66.8324C8.093 66.5488 7.69301 66.4078 7.37628 66.1996C7.27669 66.1324 7.18199 66.0554 7.08567 65.9833C7.18853 65.9292 7.29138 65.8308 7.39424 65.8308C8.39232 65.8166 9.3904 65.8166 10.3885 65.8308C10.4962 65.8308 10.604 65.9554 10.715 66.0226C10.6218 66.0948 10.5168 66.1502 10.4048 66.1865C9.78441 66.2652 9.69298 66.4242 10.0211 66.9537C10.3885 67.5454 10.7754 68.1241 11.1901 68.7568C11.7191 68.0568 12.2187 67.4274 12.6823 66.7734C12.919 66.4455 12.795 66.2816 12.3411 66.198C12.22 66.155 12.1065 66.0931 12.0048 66.0144C12.1191 65.9521 12.2317 65.839 12.3476 65.8357C13.0758 65.816 13.8056 65.8144 14.5354 65.8242C14.6398 65.8242 14.7411 65.9275 14.8439 65.9882C14.7722 66.063 14.6947 66.1321 14.6121 66.1947C14.2447 66.4357 13.8105 66.6078 13.5182 66.9176C12.9044 67.5733 12.3754 68.2913 11.7909 68.9732C11.6113 69.1846 11.6276 69.3387 11.7778 69.5584C12.4178 70.4763 13.0382 71.409 13.6701 72.3335C13.9525 72.7483 14.2758 73.1089 14.8129 73.1974C14.8864 73.2089 14.9419 73.3253 15.0039 73.3925C14.9272 73.4449 14.8521 73.54 14.7737 73.5416C13.7462 73.5548 12.7188 73.5575 11.6913 73.5498C11.6064 73.5498 11.5281 73.4367 11.4383 73.3761C11.5134 73.3072 11.577 73.1958 11.6636 73.1745C12.328 73.0105 12.3868 72.8991 12.0227 72.3188C11.6178 71.6615 11.1934 71.032 10.715 70.3075Z" fill="#AE894C"/>
<path d="M17.62 66.3783V69.2584C18.3237 69.2584 19.0322 69.278 19.7424 69.2584C20.1441 69.242 20.3383 68.9436 20.3841 68.5683C20.4216 68.265 20.5669 68.2404 20.8347 68.3404V70.8386C20.5914 70.9189 20.4183 70.9107 20.3857 70.6058C20.3334 70.114 20.0134 69.9075 19.5694 69.896C18.9294 69.8796 18.2894 69.896 17.638 69.896C17.638 70.8304 17.6249 71.7516 17.6576 72.6712C17.6576 72.7778 17.9318 72.9597 18.0772 72.9597C18.8357 72.9721 19.5944 72.9425 20.3498 72.8712C20.9424 72.8089 21.2281 72.3188 21.4926 71.8368C21.5791 71.6844 21.7669 71.591 21.9073 71.4697L22.0706 71.5877C21.9204 72.186 21.78 72.7876 21.6069 73.3793C21.584 73.4597 21.4028 73.5433 21.2951 73.5433C19.4045 73.5531 17.5133 73.5531 15.6217 73.5433C15.5221 73.5433 15.4241 73.4318 15.3262 73.3793C15.4225 73.3121 15.5107 73.199 15.6135 73.1843C16.1033 73.1171 16.2666 72.8236 16.2666 72.3745C16.2666 70.5648 16.2666 68.7557 16.2666 66.9471C16.2666 66.5225 16.0919 66.275 15.6641 66.198C15.5531 66.1783 15.46 66.0537 15.3588 65.9783C15.4617 65.9242 15.5645 65.8242 15.669 65.8242C17.4861 65.8242 19.3033 65.8242 21.1204 65.8242C21.3653 65.8242 21.473 65.9045 21.4681 66.1521C21.4681 66.4963 21.4942 66.8405 21.4681 67.1831C21.4681 67.2979 21.3473 67.4077 21.2836 67.511C21.1922 67.4225 21.0518 67.3471 21.0175 67.2438C20.8085 66.5881 20.6028 66.4078 19.9351 66.3947C19.1824 66.3652 18.4396 66.3783 17.62 66.3783Z" fill="#AE894C"/>
<path d="M95.8163 69.8744C95.8163 70.7842 95.8163 71.6333 95.8163 72.484C95.8109 72.5491 95.82 72.6145 95.843 72.6755C95.8661 72.7365 95.9024 72.7915 95.9493 72.8366C95.9963 72.8817 96.0527 72.9157 96.1144 72.9361C96.1761 72.9565 96.2416 72.9628 96.306 72.9545C97.0342 72.9397 97.7656 72.9365 98.4889 72.8676C99.106 72.807 99.426 72.3267 99.6709 71.8152C99.7982 71.5464 99.9517 71.4513 100.247 71.6054C100.107 72.1693 99.9811 72.7381 99.8146 73.2922C99.7821 73.3562 99.7345 73.4113 99.6758 73.4524C99.6171 73.4936 99.5493 73.5196 99.4782 73.5282C97.6018 73.5413 95.7254 73.5413 93.8489 73.5282C93.7494 73.5282 93.6514 73.42 93.5518 73.3643C93.6334 73.3004 93.7069 73.2004 93.7983 73.1774C94.36 73.043 94.4759 72.9397 94.4808 72.3185C94.4955 70.8235 94.4808 69.3269 94.4808 67.832C94.4808 67.5484 94.4644 67.2648 94.471 66.9796C94.4808 66.5239 94.3077 66.2387 93.8179 66.1846C93.7183 66.1731 93.6302 66.0551 93.5371 65.9862C93.6367 65.9288 93.7363 65.8223 93.8375 65.8223C95.6546 65.8092 97.4717 65.8043 99.2889 65.8223C99.3616 65.8396 99.4289 65.8751 99.4842 65.9256C99.5396 65.976 99.5814 66.0397 99.6056 66.1108C99.65 66.4822 99.6625 66.8568 99.6431 67.2304C99.6431 67.3254 99.5223 67.4172 99.457 67.509C99.364 67.4369 99.2023 67.3779 99.1876 67.2927C99.0587 66.5796 98.6456 66.3632 97.8815 66.3714C97.3003 66.378 96.7196 66.378 96.1395 66.3714C95.9158 66.3714 95.813 66.4419 95.813 66.678C95.813 67.5287 95.813 68.3811 95.813 69.2417C96.5635 69.2691 97.3149 69.2587 98.0644 69.2105C98.2587 69.1909 98.4138 68.7909 98.5885 68.568C98.6685 68.4663 98.7517 68.368 98.8383 68.268C98.9085 68.3909 99.0342 68.5122 99.0374 68.6368C99.0554 69.3646 99.0374 70.0941 99.0374 70.8071C98.7452 70.935 98.6244 70.8596 98.5558 70.5875C98.4219 70.0465 98.2293 69.8941 97.6824 69.8843C97.0815 69.8646 96.4742 69.8744 95.8163 69.8744Z" fill="#AE894C"/>
<path d="M59.3225 69.2663C60.0359 69.2663 60.6906 69.2663 61.3437 69.2663C61.791 69.2663 62.0489 69.0188 62.16 68.5779C62.1894 68.4582 62.3477 68.373 62.4473 68.2713C62.5204 68.3803 62.5725 68.5021 62.6008 68.6303C62.6155 69.3598 62.6089 70.0909 62.6089 70.822L62.48 70.9105C62.3755 70.8056 62.2187 70.7203 62.1747 70.5941C61.9869 70.0515 61.8122 69.8925 61.2424 69.8827C60.622 69.8712 60 69.8827 59.3274 69.8827C59.3274 70.817 59.3078 71.6973 59.347 72.5743C59.3781 72.6705 59.4333 72.7571 59.5074 72.8257C59.5814 72.8943 59.6718 72.9426 59.7698 72.966C60.5285 72.98 61.2874 72.9488 62.0424 72.8726C62.6285 72.807 62.9583 72.3628 63.2016 71.8547C63.3534 71.5416 63.3649 71.5432 63.8204 71.5875C63.6734 72.1973 63.5363 72.7988 63.3681 73.3906C63.3469 73.4693 63.1608 73.5545 63.0416 73.5545C61.1499 73.5633 59.2577 73.5633 57.3649 73.5545C57.2539 73.5545 57.1445 73.4332 57.0384 73.3693C57.1347 73.3021 57.2229 73.189 57.3258 73.1742C57.7698 73.1103 57.9788 72.871 57.9788 72.4251C57.9788 70.5837 57.9788 68.7434 57.9788 66.9042C57.9788 66.4748 57.7502 66.2486 57.3258 66.1994C57.2229 66.1863 57.1315 66.0764 57.0352 66.0109C57.1445 65.9453 57.2523 65.8207 57.3617 65.8207C59.1951 65.8076 61.0286 65.8207 62.8604 65.8076C63.1036 65.8076 63.2195 65.8797 63.213 66.1355C63.2049 66.5092 63.2326 66.8846 63.213 67.2567C63.213 67.3518 63.0791 67.4403 63.0089 67.5321C62.9191 67.4583 62.782 67.4009 62.751 67.3075C62.4881 66.5272 62.3298 66.3945 61.5053 66.3813C60.8947 66.3715 60.2841 66.3813 59.6735 66.3813C59.4792 66.3813 59.3143 66.3813 59.3159 66.6502C59.3257 67.5026 59.3225 68.3681 59.3225 69.2663Z" fill="#AE894C"/>
<path d="M36.1125 69.0713C36.1125 68.4156 36.1321 67.7599 36.1125 67.1042C36.0929 66.4485 35.9378 66.3174 35.3092 66.1879C35.2194 66.1699 35.146 66.0699 35.066 66.0076C35.1492 65.9469 35.2292 65.8437 35.3158 65.8338C36.0461 65.8196 36.7759 65.8196 37.5051 65.8338C37.5884 65.8338 37.6684 65.9502 37.7516 66.0125C37.6749 66.0781 37.608 66.1764 37.5198 66.2043C36.9402 66.3502 36.7835 66.5174 36.777 67.1354C36.7672 68.273 36.7917 69.4089 36.777 70.5466C36.7775 70.9644 36.7293 71.3809 36.6333 71.7874C36.3541 72.9119 35.51 73.6135 34.3476 73.6496C33.7557 73.6775 33.1627 73.6224 32.586 73.4857C31.5901 73.225 31.017 72.5021 30.9534 71.476C30.8701 70.2089 30.8815 68.9369 30.8522 67.6665C30.8522 67.4567 30.8424 67.2468 30.844 67.0387C30.844 66.5682 30.666 66.2699 30.1697 66.1977C30.0783 66.1846 30.0065 66.0535 29.9199 65.9781C30.0097 65.9256 30.0995 65.8273 30.1893 65.8256C31.097 65.8142 32.0064 65.8125 32.9158 65.8256C33.0105 65.8256 33.1035 65.9502 33.1966 66.0158C33.1133 66.0781 33.0333 66.1797 32.9452 66.1977C32.2921 66.342 32.2105 66.4174 32.2072 67.0895C32.2072 68.4353 32.168 69.7827 32.2187 71.1268C32.2791 72.707 33.7011 73.5037 35.1296 72.8054C35.3769 72.6938 35.5901 72.5183 35.7476 72.2969C35.9051 72.0754 36.0012 71.8158 36.0259 71.5448C36.1059 70.7252 36.119 69.9056 36.1615 69.086L36.1125 69.0713Z" fill="#AE894C"/>
<path d="M29.1527 71.845C29.4711 72.0089 29.4466 72.1483 29.2491 72.3712C28.6977 72.9665 27.9838 73.3855 27.1965 73.5756C26.4093 73.7657 25.5837 73.7185 24.823 73.44C23.4092 72.9269 22.472 71.5663 22.41 69.9386C22.2957 66.9225 24.8116 64.9882 27.685 65.8799C28.0817 66.0029 28.485 66.2569 28.8279 65.7275C28.934 65.5636 29.1642 65.6275 29.1772 65.8914C29.2181 66.6963 29.254 67.4995 29.2915 68.3043L29.1821 68.4043C29.0608 68.3392 28.9506 68.2551 28.8556 68.1552C28.7826 68.0089 28.7198 67.8578 28.6679 67.7027C28.2515 66.8717 27.6132 66.3307 26.6614 66.2635C25.6818 66.1947 24.8998 66.5913 24.4279 67.4552C23.6932 68.7977 23.6116 70.2124 24.3267 71.5745C25.1544 73.1547 27.1528 73.4875 28.5813 72.3532C28.7772 72.2073 28.9536 72.0253 29.1527 71.845Z" fill="#AE894C"/>
<path d="M53.3604 71.5629C53.9677 69.9549 54.5375 68.4812 55.0779 66.9977C55.2738 66.4601 55.1628 66.3289 54.5995 66.1912C54.5 66.1667 54.4216 66.0552 54.3334 65.9847C54.433 65.9273 54.5326 65.8208 54.6338 65.8208C55.2444 65.8028 55.855 65.8011 56.4656 65.8208C56.5734 65.8208 56.6795 65.9175 56.7922 65.9699C56.7122 66.0585 56.6485 66.1896 56.5505 66.2257C56.1228 66.3896 55.9595 66.7502 55.811 67.1289C55.0371 69.1178 54.2643 71.1067 53.4926 73.0956C53.4648 73.1963 53.4259 73.2936 53.3767 73.3857C53.3065 73.4841 53.1988 73.6333 53.1171 73.6267C53.0502 73.6158 52.9863 73.5905 52.93 73.5526C52.8737 73.5147 52.8261 73.4651 52.7906 73.407C52.4967 72.8038 52.2241 72.1908 51.9514 71.576C51.2984 70.0893 50.6453 68.5992 49.9743 67.1141C49.7833 66.6846 49.5596 66.2798 49.0323 66.1781C48.9735 66.1667 48.869 66.0339 48.8919 66.0027C48.9278 65.929 49.0192 65.8388 49.0894 65.8388C50.0119 65.8273 50.9359 65.8257 51.8649 65.8388C51.9384 65.8388 52.0102 65.9765 52.0837 66.0503C52.0086 66.1044 51.9384 66.1896 51.8567 66.2142C51.1694 66.3486 51.1155 66.4404 51.4012 67.0944C52.02 68.5304 52.6731 69.9975 53.3604 71.5629Z" fill="#AE894C"/>
<path d="M44.6622 65.8256V67.8746C44.4989 67.7828 44.303 67.7435 44.2606 67.6385C43.7708 66.4452 43.6467 66.36 42.3618 66.378C42.2606 66.378 42.1594 66.3944 41.9847 66.4091C41.9847 66.8386 41.9847 67.2533 41.9847 67.6664C41.9847 69.1171 41.9847 70.5662 41.9847 72.0169C41.9847 72.9152 42.0108 72.9348 42.8549 73.1643C42.9283 73.1856 42.9806 73.2873 43.0426 73.3528C42.9757 73.4118 42.9088 73.5167 42.8386 73.5167C41.859 73.531 40.8794 73.5359 39.8998 73.5315C39.8149 73.5315 39.7366 73.4151 39.6484 73.3528C39.7235 73.2823 39.7888 73.1709 39.8753 73.1496C40.5463 72.9856 40.6296 72.9479 40.6361 72.3185C40.6574 70.3629 40.6361 68.4057 40.6361 66.4485C39.5113 66.1288 38.8484 66.4829 38.4419 67.5959C38.3978 67.7172 38.2117 67.7861 38.0909 67.8795L37.9668 67.7844C37.9978 67.1288 38.0288 66.4862 38.0599 65.8174L44.6622 65.8256Z" fill="#AE894C"/>
<path d="M47.4993 69.6695C47.4993 70.5367 47.4993 71.4038 47.4993 72.271C47.4993 72.8873 47.6626 73.0447 48.2732 73.1545C48.3858 73.1758 48.4805 73.2906 48.5834 73.361C48.4691 73.4201 48.3564 73.525 48.2422 73.525C47.3181 73.5424 46.3929 73.5463 45.4667 73.5364C45.3459 73.5364 45.2283 73.4348 45.1091 73.3725C45.2218 73.2938 45.3263 73.1709 45.4504 73.1463C45.9712 73.0365 46.1181 72.9053 46.1214 72.3693C46.1323 70.5465 46.1323 68.7232 46.1214 66.8993C46.1214 66.3829 45.9679 66.2551 45.4193 66.1633C45.2958 66.1202 45.1804 66.0565 45.0781 65.9748C45.1924 65.9141 45.3051 65.8108 45.4193 65.801C46.3728 65.789 47.3257 65.789 48.2781 65.801C48.3842 65.801 48.4887 65.9305 48.5948 65.9993C48.5034 66.0715 48.4 66.127 48.2895 66.1633C47.6626 66.2403 47.4911 66.4124 47.4846 67.0566C47.4748 67.9238 47.4846 68.7909 47.4846 69.6581L47.4993 69.6695Z" fill="#AE894C"/>
<path d="M88.5415 78.4645C87.1782 78.5613 85.8133 78.6596 84.4501 78.7514C82.861 78.8607 81.2719 78.9639 79.6828 79.0612C79.2338 79.0907 79.0069 78.9088 78.9857 78.5104C78.9645 78.1121 79.2028 77.8039 79.6208 77.8285C82.5905 78.0006 85.5586 78.1859 88.5284 78.3678L88.5415 78.4645Z" fill="#AE894C"/>
<path d="M18.6445 78.3709L21.0739 78.207L26.904 77.8316C27.4297 77.7988 27.6844 77.9956 27.6877 78.4431C27.6877 78.8447 27.4428 79.0987 27.0428 79.0676C24.2836 78.8742 21.5256 78.6769 18.7686 78.4758C18.7267 78.467 18.686 78.4527 18.6478 78.4332L18.6445 78.3709Z" fill="#AE894C"/>
<path d="M62.4169 7.70722C62.5197 7.48101 62.7271 7.23021 62.7434 6.97121C62.7638 6.30031 62.7376 5.62879 62.665 4.96154C62.6159 4.72797 62.5028 4.5128 62.3385 4.34028C60.1181 1.71754 55.4456 2.23717 54.0546 5.12382C53.8582 5.54039 53.7382 5.98904 53.7003 6.4483C53.6415 7.14661 53.6839 7.85311 53.6823 8.55633C53.6823 8.80385 53.635 9.00219 53.3231 9.00875C53.0113 9.01531 52.9525 8.82024 52.9542 8.56944C52.9542 7.98588 52.9542 7.40232 52.9721 6.81876C52.9999 5.31233 52.2864 4.21406 51.0636 3.43544C49.2889 2.3093 46.7257 2.39782 45.0604 3.59936C44.3959 4.07801 43.8506 4.62058 43.9045 5.53854C43.9372 6.08604 43.8963 6.63845 43.947 7.17775C43.9665 7.37937 44.1576 7.56296 44.2555 7.7318C45.0963 7.29741 44.8808 6.50567 45.062 5.8713C45.0947 5.75819 45.1029 5.63689 45.1257 5.51887C45.1877 5.20414 45.3314 4.97302 45.6988 5.07137C45.9763 5.14349 46.0677 5.49264 45.9714 5.8254C45.8751 6.15816 45.7494 6.51387 45.782 6.84335C45.8343 7.37446 46.2473 7.66296 46.742 7.48429C47.8277 7.0794 48.8546 7.37938 49.8979 7.60559C50.0781 7.65807 50.2451 7.74861 50.3877 7.87114C49.7591 7.70722 49.2007 7.74656 48.7632 8.39732C48.6571 8.15308 48.6326 7.95474 48.5232 7.87441C48.3129 7.71036 48.0703 7.59303 47.8114 7.53018C47.5306 7.47445 47.4669 7.71541 47.4228 7.95966C47.3624 8.30061 47.0212 8.47437 46.662 8.30881C46.3028 8.14325 46.1722 8.29569 46.1347 8.58747C46.0811 8.9543 46.0691 9.32603 46.0988 9.69558C46.1363 10.0726 46.4465 10.0005 46.6914 9.93654C47.2808 9.78082 47.862 9.59231 48.453 9.44478C49.044 9.29725 49.6171 9.19398 50.1967 9.05792C50.8824 8.894 51.1648 8.55796 51.2089 7.87933C51.253 7.2007 50.9934 6.79746 50.342 6.586C49.7934 6.40732 49.2236 6.29258 48.6097 6.13521L48.8089 5.56969C48.7893 5.5451 48.7828 5.52871 48.7714 5.52215C48.1934 5.19431 48.0824 4.9976 48.2457 4.60747C48.4089 4.21734 48.8791 4.00588 49.3885 4.22554C49.7885 4.39929 50.2309 4.61567 50.4905 4.94351C50.9803 5.56641 51.4701 6.24013 51.7574 6.97121C52.226 8.14489 51.5338 9.14644 50.306 9.44806C48.8203 9.8136 47.3102 10.1546 45.8979 10.7217C42.8645 11.938 40.316 13.8526 38.4107 16.554C36.3569 19.4653 35.2597 22.7142 34.9659 26.2713C34.6655 29.907 35.2924 33.3592 37.0507 36.5327C39.6238 41.1766 43.3821 44.4009 48.6016 45.732C49.3069 45.9123 50.0399 45.9811 50.7485 46.15C50.9346 46.1942 51.2236 46.4221 51.2203 46.563C51.214 47.5126 51.154 48.4611 51.0407 49.4038C50.995 49.7595 50.7142 50.0841 50.5803 50.5037L51.9876 49.2366L52.097 49.2759C51.9827 49.63 51.9338 50.0234 51.746 50.3283C50.7191 51.979 49.5256 52.4183 47.782 52.156C46.5461 51.9708 45.5077 51.4036 44.538 50.6529C44.2334 50.4366 43.9836 50.1516 43.8087 49.8208C43.6337 49.49 43.5385 49.1226 43.5306 48.7481C43.5029 48.0024 43.4056 47.261 43.24 46.5335C42.9685 46.9985 42.7211 47.4773 42.4988 47.9678C42.2168 48.6257 41.9981 49.309 41.8458 50.0087C41.7658 50.4365 41.916 50.9119 41.9878 51.3627C42.027 51.6118 42.1511 51.8544 42.169 52.0954C42.1643 52.1628 42.1431 52.2281 42.1072 52.2853C42.0713 52.3425 42.0219 52.3899 41.9633 52.4232C41.8572 52.4544 41.7054 52.3445 41.578 52.2855C41.5422 52.2579 41.5173 52.2184 41.5078 52.1741C41.1437 50.7529 40.6654 49.33 41.7445 47.9859C41.9604 47.688 42.1578 47.3771 42.3355 47.0548L42.236 46.9286L41.387 47.3843L41.2499 47.3187L41.6743 46.0746C40.8792 46.1057 40.1005 46.2385 39.5291 46.9384C39.116 47.4499 39.0899 47.7695 39.4899 48.2891C39.6417 48.4858 39.7935 48.6858 39.9584 48.9022C39.3185 48.9252 38.8907 48.6219 38.7846 48.0728C38.7094 47.7419 38.7278 47.3965 38.8377 47.0756C38.9477 46.7547 39.1447 46.471 39.4066 46.2565C39.7311 46.0088 40.0312 45.7305 40.3029 45.4254C40.0308 45.5011 39.7662 45.6021 39.5127 45.7271C38.9658 46.0549 38.445 46.4352 37.9128 46.7909C36.0385 48.0449 34.6034 47.8285 33.2304 46.0287C31.7937 44.1469 31.3986 42.0798 32.2508 39.8226C32.3213 39.6151 32.3491 39.3954 32.3324 39.1768C31.8606 39.5964 31.3349 39.6685 30.7749 39.6144C30.0108 39.5538 29.2484 38.7342 29.3137 37.9752C29.3341 37.6964 29.4493 37.433 29.6402 37.2294C30.2822 36.648 30.9541 36.1008 31.6533 35.5902C31.9684 35.359 32.3765 35.2623 32.7324 35.0804C32.8446 35.0047 32.9472 34.9156 33.0377 34.8148C32.9218 34.7394 32.8108 34.6099 32.6884 34.5968C31.8622 34.5099 31.1063 34.8066 30.3472 35.0722C30.0517 35.1755 29.7464 35.2558 29.3676 35.3722C29.6206 34.5427 30.3635 34.5198 30.8925 34.11C30.7674 34.0408 30.6369 33.9821 30.5023 33.9346C27.237 33.0822 25.9946 29.6431 26.677 26.8171C27.004 25.3871 27.8438 24.1279 29.0362 23.2797C29.6892 22.8011 30.388 22.3667 31.1374 21.8651C30.8255 21.8061 30.5447 21.7421 30.2623 21.7012C29.9537 21.6585 29.6288 21.6815 29.3382 21.5897C29.1896 21.5438 29.0982 21.3094 28.9807 21.1602C29.1439 21.1061 29.3153 20.9963 29.4704 21.0078C30.2949 21.1045 31.1145 21.2389 31.9373 21.3504C32.0998 21.3733 32.2647 21.3733 32.4271 21.3504C32.6932 21.3094 33.0296 21.334 32.9169 20.8684C32.8924 20.7717 33.0198 20.6357 33.121 20.4308L30.8353 19.68C30.5382 19.5833 30.2361 19.4964 29.9455 19.3833C29.7757 19.3121 29.6248 19.2019 29.5049 19.0617C29.385 18.9215 29.2995 18.7551 29.2551 18.5758C29.2106 18.3964 29.2086 18.2091 29.2491 18.0289C29.2896 17.8486 29.3716 17.6804 29.4884 17.5376C29.6305 17.3628 29.8091 17.2215 30.0116 17.1236C30.2141 17.0257 30.4355 16.9737 30.6602 16.9712C30.8849 16.9687 31.1075 17.0158 31.3121 17.1091C31.5167 17.2024 31.6983 17.3398 31.8443 17.5113C32.3086 18.0601 32.8128 18.5735 33.3528 19.0473C33.1569 18.6883 32.9675 18.3244 32.7651 17.9687C31.5814 15.8951 31.3186 13.7411 32.4647 11.5987C33.2108 10.2086 34.3651 9.18415 35.9765 8.83499C36.7618 8.67107 37.5209 8.84974 38.2523 9.11857C39.0442 9.39182 39.8911 9.46446 40.7176 9.33003C41.0703 9.2825 41.1437 9.12677 40.9413 8.83827C40.8825 8.75303 40.7927 8.69074 40.7274 8.60878C40.6621 8.52682 40.6409 8.47273 40.5429 8.31536C40.7421 8.37765 40.8482 8.40552 40.9511 8.44486C41.405 8.62354 41.8605 8.79893 42.3094 8.99236C42.4159 9.04049 42.5053 9.11994 42.5658 9.22021C42.7127 9.4792 42.907 9.4333 43.0947 9.31036C43.3298 9.14644 43.258 8.9563 43.1127 8.77434C43.0563 8.70512 42.9903 8.6444 42.9168 8.59403C41.6107 7.74328 41.2629 6.46306 41.3233 5.01235C41.3197 4.75766 41.3427 4.50328 41.3919 4.2534C41.4311 4.11079 41.5911 4.00096 41.6956 3.87638C41.8098 3.99769 41.9976 4.10423 42.0221 4.24357C42.0814 4.58215 42.1017 4.92647 42.0825 5.26971C42.0172 6.53846 42.6425 7.46462 43.5208 8.27275C43.5541 8.30213 43.5922 8.32543 43.6335 8.34159C43.6563 8.34979 43.6874 8.34159 43.7739 8.32848C43.3788 7.67279 43.4735 6.97449 43.5127 6.27783C43.5248 6.09848 43.5138 5.91833 43.48 5.74181C43.4131 5.4238 43.3706 5.0435 42.8678 5.30578C43.0098 3.99441 45.5175 2.29455 47.5126 2.04375C49.6546 1.77492 51.3313 2.63222 52.8366 4.0862C52.7876 3.92228 52.7387 3.75836 52.6864 3.59444C52.4129 2.71999 52.3757 1.78828 52.5787 0.89466C52.6733 0.481579 52.8366 0.00292969 53.3264 0.00292969C53.8162 0.00292969 53.9795 0.494691 54.0594 0.897937C54.2423 1.84868 54.257 2.79942 53.8782 3.71902C53.839 3.81573 53.8048 3.91572 53.7737 4.01408C53.7777 4.06961 53.7875 4.12457 53.8031 4.178C56.1051 1.75852 58.719 1.3061 61.6104 2.90925C62.5589 3.43544 63.3801 4.13866 63.8471 5.33692C63.3344 5.09432 63.2185 5.35823 63.1679 5.65165C63.1398 5.90306 63.1272 6.15598 63.1303 6.40896C63.0977 7.03678 63.0634 7.66296 63.0307 8.2711C63.9075 7.56133 64.5377 6.63189 64.5474 5.35495C64.5266 5.0271 64.5337 4.69806 64.5687 4.37142C64.603 4.18783 64.7972 4.03374 64.9197 3.86818C65.0258 4.02227 65.2201 4.17636 65.2234 4.33372C65.2545 5.04837 65.2348 5.76433 65.1646 6.47617C65.1143 6.82612 64.9957 7.16266 64.8156 7.46647C64.6354 7.77027 64.3973 8.03536 64.1148 8.24652C63.9646 8.36782 63.816 8.4924 63.6691 8.62026C63.2479 8.9858 63.2871 9.18414 63.7017 9.33659L65.9254 8.29078L65.994 8.38585C65.8497 8.54455 65.7161 8.71266 65.594 8.88909C65.4503 9.12513 65.4568 9.28905 65.816 9.32512C66.7326 9.42848 67.6605 9.34484 68.5441 9.07923C71.2625 8.24652 73.9204 9.91196 74.6795 12.8675C75.0714 14.3952 74.8526 15.8656 74.1897 17.2769C73.9106 17.8687 73.5938 18.4424 73.3343 19.062C73.4975 18.9112 73.6608 18.767 73.8126 18.6047C74.1848 18.1965 74.5195 17.7507 74.9212 17.3753C75.6248 16.7196 76.6142 16.8458 77.1807 17.6294C77.2811 17.7678 77.3493 17.9271 77.3803 18.0955C77.4113 18.2639 77.4045 18.4371 77.3601 18.6024C77.3158 18.7678 77.2352 18.9211 77.1242 19.0511C77.0132 19.1811 76.8747 19.2846 76.7187 19.3538C76.2289 19.5521 75.6983 19.6816 75.1905 19.8456C74.6436 20.0275 74.1 20.2259 73.5579 20.416C73.7734 21.3618 73.7751 21.3995 74.6844 21.3438C75.3603 21.3045 76.0314 21.1651 76.7056 21.0668C76.8466 21.0224 76.9924 20.9955 77.1399 20.9865C77.3086 21.0231 77.4729 21.078 77.6297 21.1504C77.5007 21.3028 77.393 21.5503 77.2379 21.5864C76.7481 21.6979 76.2436 21.7274 75.7456 21.7946C75.6442 21.8204 75.5449 21.8538 75.4485 21.8946C75.6542 22.0093 75.8028 22.0864 75.9465 22.1716C77.2771 22.9584 78.5587 23.8108 79.3293 25.214C80.6958 27.6843 80.2484 31.0151 78.3497 32.7084C77.7718 33.2284 77.0907 33.6194 76.3514 33.8559C76.175 33.9133 76.0036 33.9903 75.7424 34.0903C76.2762 34.5296 76.9766 34.6116 77.3162 35.3181C77.1118 35.305 76.9088 35.276 76.7089 35.2312C76.1718 35.0574 75.6493 34.8247 75.1024 34.6886C74.711 34.6128 74.312 34.5836 73.9138 34.6017C73.8126 34.6017 73.7098 34.7345 73.6069 34.8066C73.6836 34.9017 73.7473 35.0656 73.8387 35.0837C74.9473 35.3 75.6558 36.1229 76.4656 36.7934C76.5913 36.8983 76.7138 37.0097 76.8411 37.1114C77.375 37.5343 77.4779 38.0015 77.1677 38.6112C76.6583 39.6226 75.5628 39.9423 74.5979 39.3636L74.2502 39.1604C74.2796 39.4009 74.3298 39.6384 74.4004 39.8702C75.5008 42.4519 74.3726 45.4877 72.4412 46.9679C71.4616 47.7154 70.4494 47.7974 69.4029 47.1794C68.7106 46.7696 68.0658 46.2795 67.3768 45.868C67.0242 45.6869 66.6592 45.5313 66.2846 45.4025C66.265 45.4484 66.247 45.4943 66.2291 45.5385C66.5784 45.8057 66.9441 46.0516 67.2723 46.3418C67.5485 46.5854 67.7436 46.9083 67.8312 47.2668C67.9188 47.6253 67.8947 48.0022 67.7621 48.3465C67.5841 48.7957 67.1956 48.917 66.6584 48.9563C66.8772 48.6645 67.0535 48.4383 67.2217 48.2072C67.5205 47.7974 67.4666 47.4417 67.1744 47.0237C66.6144 46.2188 65.7752 46.1582 64.9393 46.0828L65.3866 47.34L65.2658 47.4122L64.3907 46.9204L64.2862 47.0368C64.4544 47.3422 64.638 47.6387 64.8364 47.9252C65.4993 48.7875 65.7442 49.7185 65.4258 50.7873C65.3327 51.0987 65.336 51.443 65.2723 51.7593C65.2535 51.9372 65.1881 52.1068 65.083 52.2511C65.0264 52.3117 64.9565 52.3582 64.8788 52.3867C64.801 52.4151 64.7178 52.4249 64.6356 52.415C64.5311 52.3773 64.4903 52.1396 64.4397 51.9839C64.4341 51.9264 64.4479 51.8687 64.4789 51.82C65.163 50.5086 64.7254 49.2858 64.185 48.0826C63.9548 47.5712 63.6413 47.0991 63.3262 46.5352C63.2283 47.3548 63.1075 48.0941 63.0601 48.8432C63.0095 49.6218 62.6471 50.1939 62.0659 50.666C60.6912 51.7856 59.1271 52.4216 57.3574 52.179C56.1704 52.0151 55.2856 51.2971 54.768 50.1939C54.6472 49.9024 54.6012 49.585 54.6341 49.271L56.0774 50.5824L56.1982 50.4873C55.7224 49.916 55.44 49.2076 55.3917 48.4645C55.3688 47.9269 55.3541 47.3892 55.3476 46.8515C55.3476 46.4254 55.5109 46.1696 55.9827 46.1024C57.5929 45.8933 59.1695 45.4762 60.6732 44.8615C63.0128 43.878 64.9409 42.3273 66.678 40.5062C68.3292 38.7922 69.6216 36.7633 70.4788 34.5394C71.9106 30.8053 72.0706 26.9892 71.1645 23.1223C70.5187 20.2785 69.1948 17.6347 67.3066 15.4181C65.2974 13.0623 62.6785 11.3104 59.7394 10.3562C58.5965 9.97752 57.4259 9.68574 56.2553 9.40216C55.0847 9.11858 54.4807 8.20062 54.8284 7.02039C55.1134 6.01323 55.7363 5.13592 56.5917 4.53698C56.9422 4.32439 57.3388 4.2001 57.7476 4.17472C58.0741 4.1403 58.3386 4.36651 58.4104 4.72713C58.4822 5.08776 58.2896 5.32053 57.968 5.45822L57.7916 5.5369C57.8782 5.75 57.9549 5.95163 58.048 6.17292C57.4814 6.29914 56.9394 6.39421 56.4153 6.54666C55.6806 6.75976 55.4358 7.08268 55.4439 7.74656C55.4439 8.53829 55.6578 8.81205 56.4235 9.01531L59.9614 9.94638C60.4316 10.0693 60.4969 10.0365 60.5393 9.52346C60.5587 9.19967 60.5477 8.87479 60.5067 8.55305C60.4773 8.29897 60.3255 8.21373 60.0577 8.29078C59.4471 8.46945 59.341 8.39077 59.1761 7.81213C59.1386 7.68427 58.9622 7.49904 58.8659 7.50723C58.6253 7.53722 58.3934 7.61703 58.1851 7.74164C58.092 7.79573 58.0937 8.00063 58.0055 8.08915C57.9173 8.17767 57.7214 8.21537 57.692 8.17767C57.2921 7.68591 56.7712 7.80065 56.2227 7.90392C56.2717 7.82688 56.2864 7.77115 56.3141 7.76459C57.31 7.49412 58.2863 7.05973 59.3557 7.3761C59.47 7.40888 59.5859 7.43675 59.7018 7.46134C60.0561 7.5351 60.4561 7.64329 60.6945 7.29741C60.8326 7.1099 60.9135 6.88605 60.9271 6.65319C60.9407 6.42033 60.8866 6.18852 60.7712 5.98605C60.7091 5.86966 60.6079 5.71722 60.634 5.61886C60.701 5.41396 60.7973 5.13858 60.9606 5.06645C61.2055 4.95662 61.4046 5.15005 61.4634 5.42707C61.4977 5.591 61.5173 5.75492 61.5548 5.91064C61.7051 6.52863 61.5516 7.27283 62.4169 7.70722ZM69.2429 43.3027C67.8568 43.5518 66.9164 42.8486 66.1213 41.87C65.9205 42.0454 65.7948 42.1519 65.6756 42.2601C64.4381 43.3731 63.145 44.3911 61.5369 44.9353C60.8838 45.1599 60.8936 45.2074 61.2104 45.8582C61.2904 46.0221 61.3475 46.186 61.4291 46.35C61.6512 46.7811 62.0561 46.804 62.3434 46.4073C62.4218 46.2975 62.4838 46.1762 62.5703 46.0795C62.8087 45.7959 63.0503 45.5959 63.4307 45.9156C63.6201 46.0795 63.8552 46.1221 64.0168 45.8057C64.4446 44.9697 64.8103 44.7943 65.705 44.9288C65.8688 44.9374 66.0331 44.9275 66.1948 44.8993L65.8976 43.9338C66.1899 43.9616 66.3776 43.9338 66.5327 43.9993C67.1319 44.2387 67.6756 44.5468 68.0658 45.1074C68.3568 45.5219 68.6942 45.9014 69.0715 46.2385C70.0331 47.104 71.2788 47.1548 72.2943 46.3565C73.4714 45.4336 74.0902 44.2042 74.2012 42.6994C74.3024 41.293 73.8387 40.021 73.3555 38.7457C73.3032 38.6096 73.2608 38.4686 73.2151 38.3293L73.2869 38.308L73.94 39.0555L74.0722 38.9555C73.9573 38.0922 73.5497 37.2951 72.9179 36.6983C72.9179 36.9507 72.9179 37.1097 72.9179 37.2671C72.9179 37.4245 72.9539 37.5949 72.98 37.808C72.402 37.3163 72.229 37.3753 71.9579 38.0375C71.8807 38.2634 71.7789 38.48 71.6543 38.6834C71.4127 39.0342 71.5171 39.262 71.8502 39.4489C71.9367 39.4964 72.0135 39.5554 72.1147 39.6128C71.9302 39.921 71.6788 39.8734 71.4371 39.7948C71.0584 39.6702 70.7563 39.421 70.7416 39.0112C70.7531 38.9002 70.7882 38.7931 70.8446 38.6969C70.9009 38.6007 70.9771 38.5179 71.0682 38.4539C71.4241 38.2129 71.6478 37.9211 71.5955 37.4949C71.5515 37.2804 71.4426 37.0848 71.2836 36.9348C71.1246 36.7849 70.9233 36.688 70.7074 36.6573C70.2535 36.6016 69.989 36.8606 69.7914 37.231C69.5727 37.6392 69.349 38.0506 69.1204 38.4473C68.7629 39.0784 69.3164 40.2505 70.0543 40.2832C70.8527 40.3226 71.4518 40.775 72.0804 41.1373C72.3559 41.3316 72.5459 41.6252 72.611 41.9569C72.8053 43.0748 72.0477 44.437 71.0306 44.9337C70.5065 45.191 69.8143 45.1845 69.398 44.8911C69.6184 44.7911 69.8143 44.6927 70.0168 44.6091C70.3882 44.4549 70.7226 44.223 70.9977 43.9287C71.2727 43.6344 71.4821 43.2847 71.6118 42.9027C71.6949 42.6346 71.6875 42.3465 71.5906 42.0831C71.3506 41.4077 70.4706 40.9045 69.7555 40.9733C69.2315 41.0225 68.9833 41.2356 68.8494 41.7487C68.6992 42.3339 68.7662 42.8699 69.2429 43.2977V43.3027ZM37.3446 44.9009C37.1175 45.0179 36.8696 45.0885 36.6151 45.1088C36.3607 45.129 36.1048 45.0985 35.8622 45.0189C34.8516 44.655 33.9634 43.3682 33.9879 42.2913C33.9993 41.8274 34.094 41.3995 34.5561 41.1537C35.0181 40.9078 35.4426 40.6619 35.8916 40.4324C36.0236 40.3654 36.1671 40.3242 36.3144 40.3111C36.814 40.2734 37.6401 39.4915 37.6907 38.985C37.6988 38.8811 37.6773 38.7771 37.6287 38.685C37.3218 38.1211 37.0181 37.5556 36.6867 37.0065C36.605 36.861 36.4753 36.7488 36.3201 36.6889C36.1648 36.6291 35.9937 36.6254 35.8361 36.6786C35.6378 36.7215 35.4576 36.8251 35.3204 36.9751C35.1833 37.1251 35.0959 37.3142 35.0704 37.5162C34.9936 37.9506 35.2516 38.2293 35.5863 38.4801C35.7495 38.603 35.9356 38.8522 35.9128 39.0227C35.8654 39.4653 35.5226 39.7259 35.1112 39.8226C34.9332 39.8652 34.721 39.7636 34.5234 39.7276C35.2255 39.1882 35.2255 39.185 34.8728 38.4637C34.8059 38.3309 34.7683 38.1818 34.6949 38.0539C34.5789 37.8523 34.4826 37.5785 34.3047 37.4949C34.1659 37.431 33.9145 37.613 33.6843 37.6949V36.6507C33.0949 37.4031 32.6051 38.049 32.6051 38.9145L32.739 39.0047L33.3218 38.2883C33.3322 38.4778 33.2999 38.6672 33.2271 38.8424C32.7667 40.1406 32.3128 41.4389 32.463 42.8568C32.6345 44.496 33.3561 45.7861 34.8042 46.6106C35.2779 46.8718 35.8254 46.9654 36.3585 46.8762C36.8916 46.787 37.3793 46.5202 37.743 46.1188C38.1087 45.7057 38.396 45.214 38.8074 44.8534C39.2329 44.5161 39.6952 44.2285 40.1854 43.996C40.2915 43.9387 40.587 43.996 40.6115 44.0747C40.6482 44.2569 40.6375 44.4454 40.5805 44.6222C40.5609 44.7075 40.4499 44.773 40.2882 44.9501C40.6376 44.9206 40.8792 44.9124 41.1176 44.8812C41.8017 44.7878 42.3062 45.0451 42.5511 45.691C42.6915 46.0532 42.951 46.1369 43.2041 45.9303C43.6188 45.6025 43.8408 45.791 44.0645 46.1303C44.1298 46.2303 44.1918 46.3336 44.2637 46.427C44.5592 46.8122 44.9624 46.7811 45.1845 46.3581C45.2873 46.1598 45.3788 45.9549 45.4898 45.7615C45.782 45.2566 45.782 45.1861 45.2269 44.996C43.7021 44.478 42.4204 43.5699 41.2123 42.5371C40.4188 41.8569 40.5592 41.7684 39.7886 42.6044C39.1111 43.3436 38.2556 43.2928 37.3756 43.3584C37.8458 42.9207 37.9046 42.3913 37.7985 41.8208C37.6924 41.2504 37.3217 40.9291 36.7275 40.9783C36.2159 41.0035 35.7323 41.2205 35.3724 41.5864C34.943 42.0355 34.8336 42.5453 35.0834 43.1109C35.2357 43.4695 35.4589 43.7933 35.7395 44.0627C36.0202 44.332 36.3524 44.5414 36.716 44.678C36.9005 44.7353 37.0769 44.7993 37.3446 44.9009ZM73.5236 32.6576C73.0339 31.9806 73.0583 31.0807 73.4975 30.5267C73.6182 30.3945 73.7306 30.2549 73.8338 30.1087C74.0722 29.7218 73.9628 29.43 73.522 29.3497C73.251 29.3005 72.9604 29.3579 72.6828 29.3317C72.3188 29.2989 72.162 29.4726 72.1147 29.8054C72.0967 29.9382 72.0657 30.0693 72.0396 30.2005C71.8763 31.0643 71.6935 31.9282 71.5269 32.792C71.4061 33.4149 71.5122 33.4822 72.1179 33.4149C72.5455 33.3945 72.974 33.4197 73.3963 33.4904C73.7653 33.5297 74.131 33.6543 74.4967 33.6543C75.6349 33.6188 76.727 33.1948 77.5929 32.4521C78.4587 31.7095 79.0464 30.6926 79.2591 29.5694C79.7619 26.7909 78.6321 24.2632 76.1832 22.9715C75.5047 22.5857 74.7241 22.4197 73.9481 22.4962C73.3522 22.565 72.8396 22.1929 72.4788 21.4963C72.2257 21.0045 72.4428 20.7209 72.8477 20.5127C72.7139 20.021 72.3384 19.9144 71.9531 19.7898C71.4012 19.6128 71.2575 19.2128 71.5384 18.7243C71.8028 18.2654 71.7571 17.9801 71.3751 17.6162C70.9931 17.2523 70.6061 16.9474 70.5278 16.3918C70.5163 16.3147 70.3955 16.1918 70.3286 16.1934C70.0196 16.1761 69.7098 16.2087 69.4111 16.2901C69.0111 16.4442 68.936 16.7966 69.1449 17.1638C70.5637 19.6489 71.5808 22.2896 72.0069 25.1222C72.1506 26.0729 72.5702 26.5745 73.4763 26.7434C73.491 26.7434 73.5073 26.7581 73.5187 26.7532C73.6591 26.6942 73.9138 26.6401 73.9187 26.5696C73.9599 26.2239 73.9389 25.8735 73.8567 25.5353C73.7391 25.1582 73.4812 24.8255 73.3114 24.4616C73.2255 24.2926 73.1963 24.1004 73.2281 23.9134C73.2598 23.7264 73.3509 23.5548 73.4877 23.424C73.6608 23.2502 73.9383 23.1797 74.1685 23.0633L74.2665 23.1994C74.1032 23.4912 73.9122 23.7764 73.7669 24.0796C73.7093 24.2132 73.704 24.3637 73.7522 24.5009C73.7767 24.5583 73.9906 24.5517 74.1163 24.5452C75.1187 24.4944 76.0412 24.7468 76.7971 25.4074C78.4052 26.8122 78.0819 29.1776 77.2264 30.3611C76.704 31.0824 76.0069 31.5512 75.104 31.6217C74.8434 31.6315 74.5845 31.5751 74.3514 31.4577C73.9628 31.2709 73.7179 31.3512 73.6347 31.7856C73.571 32.0397 73.5612 32.3052 73.5236 32.6576ZM33.1112 32.5904C33.0965 32.3518 33.0676 32.1142 33.0247 31.879C32.8908 31.3282 32.6981 31.2676 32.2084 31.5413C32.0423 31.6348 31.8532 31.6792 31.6631 31.6692C31.231 31.6338 30.8115 31.5064 30.4323 31.2956C30.0531 31.0847 29.723 30.7952 29.4639 30.4463C28.8288 29.6103 28.6998 28.6432 28.7815 27.6384C28.9039 26.1073 29.8492 25.0156 31.3365 24.6878C31.8426 24.578 32.3651 24.5452 32.9692 24.4649C32.783 24.0534 32.5839 23.6157 32.3814 23.1666C33.0932 23.106 33.5847 23.6584 33.3936 24.2845C33.2957 24.6124 33.0671 24.8878 32.9479 25.2074C32.7952 25.5576 32.6961 25.929 32.6541 26.309C32.6312 26.763 32.863 26.8893 33.2843 26.7417C33.5243 26.6581 33.7561 26.5565 33.9896 26.4614C34.1301 26.4122 34.2535 26.3232 34.3448 26.2051C34.4361 26.087 34.4913 25.9449 34.5038 25.7959C34.9121 22.7377 35.9275 19.7929 37.4899 17.136C37.5374 17.0651 37.5683 16.9844 37.5801 16.8999C37.5919 16.8153 37.5844 16.7292 37.5582 16.6479C37.5319 16.5667 37.4875 16.4926 37.4285 16.4312C37.3694 16.3697 37.2972 16.3226 37.2173 16.2934C36.9467 16.2151 36.6662 16.177 36.3846 16.1803C36.3298 16.1869 36.2775 16.2073 36.2327 16.2397C36.1878 16.2721 36.1519 16.3154 36.1283 16.3655C36.0124 16.9392 35.5879 17.2753 35.2091 17.6523C34.8597 18.0015 34.8287 18.3277 35.0883 18.7342C35.3479 19.1407 35.2859 19.4604 34.8516 19.6948C34.6622 19.798 34.4059 19.7898 34.2296 19.9062C34.0503 20.045 33.9005 20.2184 33.7887 20.416C33.7659 20.4521 33.8753 20.6373 33.952 20.6734C34.3928 20.8684 34.3145 21.1651 34.1251 21.4766C33.9748 21.7512 33.7856 22.0024 33.5634 22.2224C33.3739 22.3998 33.1269 22.5022 32.8679 22.5109C31.3023 22.3552 30.0402 22.9666 28.9758 24.0403C27.415 25.6107 26.9888 27.5253 27.3921 29.6595C27.5077 30.3005 27.7516 30.9113 28.109 31.4549C28.4665 31.9986 28.93 32.4637 29.4717 32.8223C30.0133 33.1809 30.6218 33.4254 31.2603 33.5411C31.8988 33.6567 32.554 33.6412 33.1863 33.4953C33.6366 33.4116 34.0973 33.4 34.5512 33.4608C35.0328 33.5084 35.1895 33.4363 35.0997 32.9576C34.894 31.8577 34.6524 30.7627 34.4026 29.6792C34.3777 29.6083 34.336 29.5446 34.2811 29.4935C34.2262 29.4423 34.1598 29.4054 34.0875 29.3858C33.7467 29.3498 33.403 29.3498 33.0622 29.3858C32.7357 29.4186 32.5822 29.6448 32.7128 29.9579C32.8246 30.1839 32.9622 30.3963 33.1226 30.5906C33.3349 30.881 33.4484 31.2322 33.4463 31.5924C33.4443 31.9526 33.3268 32.3025 33.1112 32.5904ZM70.3057 13.5494C70.3317 13.6527 70.3433 13.7592 70.34 13.8657C70.2225 14.3493 69.7164 14.5509 69.1972 14.3575C69.0138 14.2735 68.812 14.238 68.6111 14.2542C68.1131 14.3427 67.8388 14.1919 67.7801 13.6772C67.7461 13.3351 67.7422 12.9906 67.7686 12.6478C67.7921 12.2408 67.9591 11.8555 68.2397 11.5609C68.5203 11.2662 68.8961 11.0815 69.3 11.0397C70.7172 10.8758 72.2943 12.0233 72.6257 13.41C72.9179 14.6296 72.2143 15.5263 71.6886 16.4639C71.5171 16.7688 71.4339 16.9638 71.602 17.2573C71.8975 17.7703 72.1865 18.2883 72.4902 18.8227C73.0992 17.9047 73.7 16.9179 73.9791 15.7689C74.4036 14.01 74.3057 12.3265 73.0812 10.8955C71.4633 9.00875 69.1384 8.90876 67.6184 10.7971C67.0797 11.4692 66.5017 12.0692 65.6968 12.4265C65.323 12.5904 65.2936 12.8625 65.6087 13.0822C66.6105 13.7616 67.473 14.6281 68.149 15.6344C68.2338 15.7313 68.3387 15.8082 68.4563 15.8597C68.574 15.9113 68.7015 15.9362 68.8298 15.9328C69.4484 15.8767 70.0618 15.7737 70.6649 15.6246C71.1678 15.5049 71.5939 15.1918 71.6869 14.6624C72.0004 12.8822 70.7955 11.8347 69.4013 11.7118C69.2292 11.6935 69.0555 11.7236 68.8995 11.799C68.7436 11.8743 68.6117 11.9918 68.5186 12.1382C68.4255 12.2846 68.3749 12.4542 68.3725 12.6279C68.3701 12.8016 68.4159 12.9725 68.5049 13.1215C68.6954 13.4356 68.9157 13.7304 69.1629 14.0018C69.3621 14.2411 69.5923 14.1493 69.7947 13.9903C69.958 13.8674 70.1033 13.728 70.3057 13.5494ZM34.2149 18.9145C34.2618 18.6517 34.3329 18.3938 34.4271 18.1441C34.5349 17.9211 34.7618 17.7539 34.8614 17.5294C34.9838 17.2573 35.1553 16.9065 35.0753 16.6688C34.9332 16.2409 34.6083 15.8754 34.3798 15.4738C34.2388 15.2459 34.129 15 34.0532 14.7427C33.5814 12.856 35.1226 10.9873 37.1128 11.0069C37.4282 11.0006 37.7392 11.0818 38.0117 11.2414C38.2842 11.401 38.5075 11.633 38.6572 11.9118C39.005 12.5117 39.0034 13.1838 38.8303 13.8264C38.7781 14.0215 38.4499 14.2919 38.2703 14.2739C37.9369 14.2494 37.6023 14.2998 37.2907 14.4214C37.1732 14.4651 37.0462 14.4761 36.923 14.4534C36.7998 14.4307 36.6849 14.375 36.5905 14.2924C36.4961 14.2097 36.4257 14.1029 36.3866 13.9834C36.3475 13.864 36.3412 13.7361 36.3683 13.6133C36.4565 13.6838 36.5316 13.7395 36.6083 13.8067C37.0867 14.2509 37.3528 14.2296 37.7283 13.7149C37.8246 13.5838 37.9275 13.4543 38.0238 13.3215C38.2948 12.9527 38.3634 12.5626 38.1234 12.1511C37.8997 11.7659 37.5062 11.6053 37.0067 11.6823C36.42 11.7795 35.8859 12.0807 35.498 12.5331C35.11 12.9856 34.8928 13.5605 34.8842 14.1575C34.8712 14.805 35.1406 15.2787 35.7234 15.5049C36.2282 15.678 36.745 15.8139 37.2695 15.9115C38.0254 16.0836 38.5299 15.759 38.9021 15.1033C39.3593 14.3149 40.0319 13.7264 40.7878 13.2215C41.3609 12.8396 41.3576 12.6216 40.7601 12.315C40.1393 11.9912 39.6004 11.5292 39.1846 10.9643C38.1626 9.62673 36.605 9.10218 35.281 9.65296C33.5798 10.3513 32.6835 11.6856 32.4696 13.492C32.241 15.4148 33.0083 17.0589 33.9585 18.6424C34.0371 18.7394 34.1228 18.8304 34.2149 18.9145ZM48.3371 48.9612C48.6359 49.253 48.8905 49.4989 49.142 49.748C49.5044 50.107 49.8848 50.1185 50.1999 49.7153C50.402 49.4781 50.5392 49.1923 50.5983 48.8858C50.6685 48.2326 50.6996 47.5757 50.6913 46.9188C50.6913 46.7893 50.5656 46.5712 50.4709 46.5549C50.3951 46.5591 50.3213 46.5805 50.2548 46.6174C50.1884 46.6543 50.1311 46.7057 50.0873 46.7679C49.8881 47.045 49.7509 47.3679 49.5469 47.6417C49.315 47.9531 48.9983 48.1187 48.4938 47.9924C48.6767 47.8285 48.8106 47.7187 48.9281 47.5974C49.0835 47.4595 49.2217 47.3032 49.3395 47.1319C49.5763 46.7303 49.4652 46.5024 49.013 46.3909C48.2179 46.1942 47.4244 45.9992 46.631 45.7943C46.2212 45.6877 45.8441 45.8598 45.8049 46.2746C45.751 46.8434 45.7918 47.422 45.7918 47.9908L47.1061 47.7728L47.1436 47.8941C46.7224 48.3531 46.3045 48.8186 45.8767 49.271C45.689 49.4677 45.5143 49.4448 45.3869 49.1874C45.1714 48.7448 44.9755 48.2908 44.7225 47.8761C44.6147 47.6941 44.3861 47.5826 44.2131 47.44C44.0857 47.6236 43.8735 47.799 43.8506 47.9957C43.8128 48.4274 43.8183 48.8618 43.867 49.2923C43.8917 49.4531 43.972 49.5999 44.0939 49.7071C44.9159 50.4491 45.8711 51.0271 46.9085 51.4102C47.1299 51.5028 47.3708 51.5382 47.6093 51.513C47.8478 51.4877 48.0761 51.4028 48.2734 51.2659C48.3433 51.2185 48.4022 51.1565 48.4459 51.084C48.4895 51.0116 48.517 50.9305 48.5265 50.8463C48.4863 50.5499 48.4016 50.2614 48.275 49.9906C48.1936 49.8289 48.1565 49.6484 48.1674 49.4675C48.1783 49.2866 48.2369 49.1119 48.3371 48.9612ZM60.8789 47.9777C60.8789 47.4187 60.9034 46.8843 60.8789 46.3516C60.8463 45.7729 60.5769 45.6008 60.0071 45.7516C59.1451 45.9779 58.288 46.2188 57.421 46.4319C57.0945 46.5106 57.0945 46.7122 57.1859 46.9319C57.2764 47.1027 57.3939 47.2577 57.5337 47.3909C57.7084 47.5843 57.8961 47.763 58.079 47.9482C58.048 48.0006 58.0169 48.0531 57.9876 48.1121C57.7459 48.0137 57.4488 47.9711 57.2774 47.8023C56.9982 47.5269 56.8153 47.1466 56.5623 46.8483C56.432 46.7301 56.2851 46.6318 56.1264 46.5565C56.0578 46.7073 55.9337 46.8581 55.9321 47.0089C55.9196 47.5016 55.9414 47.9946 55.9974 48.4842C56.032 48.8377 56.1299 49.182 56.2864 49.5005C56.6259 50.13 57.0602 50.1677 57.5631 49.6743C57.6521 49.5736 57.7475 49.4789 57.8488 49.3907C58.0022 49.2727 58.1753 49.1759 58.3386 49.0628C58.3846 49.2851 58.4163 49.5102 58.4333 49.7366C58.4113 49.853 58.3601 49.9618 58.2847 50.0529C57.7949 50.8365 58.0822 51.4315 58.9933 51.5053C59.1993 51.5298 59.4083 51.5016 59.6006 51.4233C60.3598 51.0512 61.1042 50.6512 61.8504 50.2546C62.6667 49.8185 62.9507 49.1202 62.7679 48.2367C62.7107 47.9564 62.5344 47.7023 62.412 47.4367C62.2128 47.6531 61.9646 47.8449 61.821 48.0924C61.5744 48.5285 61.3916 49.0022 61.1238 49.5858L59.4471 47.8761L59.5075 47.7613L60.8789 47.9777ZM34.3879 27.799C34.4124 26.7253 34.3765 26.7024 33.3626 27.1105L33.3202 27.1253C32.6312 27.3908 32.0973 27.1253 31.8508 26.4139C31.8253 26.3433 31.7854 26.2789 31.7337 26.2247C31.682 26.1705 31.6195 26.1277 31.5504 26.0992C31.301 26.0175 31.0334 26.0101 30.7799 26.0779C30.5263 26.1457 30.2978 26.2857 30.1219 26.4811C29.0998 27.5613 29.5178 29.7202 30.868 30.3234C31.5129 30.6103 31.7235 30.5201 31.9569 29.8513C32.2084 29.1317 32.339 29.0399 33.0916 29.0465C34.3618 29.0579 34.3634 29.0579 34.3879 27.799ZM72.2322 27.8629C72.2322 27.9383 72.2322 28.0137 72.2322 28.0875C72.2143 28.935 72.3661 29.0809 73.2118 29.0317C73.2706 29.0317 73.3294 29.0186 73.3898 29.0169C74.1653 28.9809 74.3693 29.1137 74.6697 29.8366C74.9424 30.5037 75.171 30.6004 75.8126 30.2644C76.0622 30.1346 76.2841 29.9569 76.4656 29.7415C77.0909 28.9907 77.1824 28.117 76.9228 27.2073C76.6877 26.3795 75.9432 25.9172 75.1955 26.0598C75.0859 26.0679 74.9823 26.1127 74.9011 26.187C74.82 26.2613 74.7661 26.3608 74.7481 26.4696C74.5849 27.1253 73.9775 27.399 73.3522 27.1417C72.273 26.6991 72.273 26.6991 72.2339 27.8695L72.2322 27.8629ZM66.3956 11.1987L65.2756 11.0627L65.2511 10.8906C65.6224 10.7739 65.9866 10.6354 66.3417 10.4758C66.505 10.3939 66.598 10.1775 66.7221 10.0234C66.5699 9.92558 66.4051 9.84893 66.2323 9.79557C66.0831 9.7761 65.9319 9.811 65.8062 9.89392C65.367 10.1972 64.8936 10.23 64.3728 10.2431C63.754 10.2595 63.3932 9.97097 63.0275 9.53822C62.6618 9.10546 62.3205 8.62845 61.6463 8.61698C61.2495 8.61698 60.9475 8.79893 60.91 9.20709C60.914 9.38567 60.9047 9.56429 60.8822 9.74148C60.794 10.0988 60.9312 10.2759 61.2479 10.4398C62.2781 10.9676 63.2952 11.5249 64.3091 12.079C65.0062 12.4609 66.0446 12.0757 66.3956 11.1987ZM40.3144 11.1889C40.4776 11.779 41.2858 12.3741 41.7837 12.32C41.8851 12.3013 41.9825 12.2647 42.0711 12.2118C43.2183 11.5867 44.3649 10.9594 45.511 10.33C45.6155 10.2726 45.7641 10.1546 45.7624 10.066C45.7712 9.70846 45.7361 9.35116 45.6579 9.00219C45.6214 8.9156 45.5663 8.83812 45.4966 8.77524C45.4269 8.71236 45.3443 8.66561 45.2547 8.63829C44.8041 8.52026 43.7853 9.11038 43.5666 9.54149C43.4851 9.71429 43.3615 9.86369 43.2074 9.97588C42.5331 10.4168 41.8311 10.2873 41.1258 10.0365C40.8233 9.92865 40.5119 9.84802 40.1952 9.79557C40.1344 9.79915 40.0756 9.81838 40.0245 9.8514C39.9733 9.88441 39.9314 9.93011 39.9029 9.98408C39.8946 10.0478 39.9014 10.1127 39.9227 10.1733C39.9439 10.234 39.9791 10.2888 40.0254 10.3332C40.1658 10.4127 40.3155 10.4744 40.4711 10.5168C40.7731 10.648 41.0719 10.7857 41.3723 10.9217L41.338 11.0479L40.3144 11.1889ZM73.5612 35.7541C73.5995 35.9689 73.654 36.1804 73.7245 36.3868C74.0118 36.9933 74.3187 37.59 74.6126 38.19C74.9718 38.9325 75.4289 39.1178 76.1995 38.8293C76.7726 38.6145 76.9473 37.7998 76.4705 37.4195C75.9011 36.963 75.3058 36.5399 74.6877 36.1524C74.3971 35.9705 74.0183 35.9098 73.5612 35.7541ZM33.1259 35.959L32.9904 35.7951C32.6639 35.8983 32.2851 35.9393 32.001 36.1229C31.3251 36.5524 30.6949 37.0442 30.0419 37.5228C29.954 37.6004 29.8962 37.7066 29.8786 37.8228C29.8577 38.0236 29.8971 38.226 29.9917 38.4042C30.0862 38.5823 30.2316 38.7281 30.4092 38.8227C30.9578 39.044 31.552 38.9866 31.7578 38.6096C32.2443 37.7408 32.6753 36.8425 33.1259 35.959ZM40.0482 41.5077C40.0188 41.4385 39.9821 41.3725 39.9389 41.311C39.3919 40.6996 38.8499 40.0849 38.2899 39.4866C38.1168 39.303 37.9193 39.3227 37.7675 39.5489C37.6846 39.6731 37.5947 39.7924 37.4981 39.9062C37.2842 40.157 37.3348 40.3767 37.5846 40.5504C38.2377 40.993 38.5038 41.611 38.4809 42.388C38.4695 42.7732 38.7258 42.9191 39.018 42.6732C39.3475 42.3729 39.6573 42.0515 39.9454 41.711C39.9893 41.6486 40.0239 41.5801 40.0482 41.5077ZM69.3213 40.1964C69.0845 39.9111 68.918 39.6079 68.6682 39.4554C68.5604 39.3915 68.2209 39.6046 68.0609 39.7652C67.6135 40.2209 67.2135 40.7242 66.7744 41.1914C66.5801 41.3979 66.5131 41.57 66.7286 41.7946C66.9964 42.0716 67.2429 42.3732 67.5303 42.6289C67.5947 42.6808 67.6693 42.7186 67.7491 42.7398C67.829 42.7609 67.9124 42.7651 67.9939 42.7519C68.0723 42.7355 68.1376 42.4945 68.1441 42.3519C68.1719 41.6618 68.3711 41.0684 68.9604 40.6422C69.0984 40.5053 69.2211 40.3535 69.3262 40.1898L69.3213 40.1964ZM72.5865 34.3116C72.4902 34.1657 72.4232 33.951 72.2763 33.8641C72.1787 33.8103 72.0713 33.7767 71.9605 33.7653C71.8497 33.7538 71.7377 33.7648 71.6312 33.7975C71.5247 33.8302 71.4258 33.8839 71.3403 33.9556C71.2548 34.0273 71.1845 34.1155 71.1335 34.2149C70.8641 34.8083 70.6323 35.4213 70.4151 36.0377C70.4095 36.1075 70.4215 36.1776 70.4501 36.2415C70.4786 36.3054 70.5227 36.361 70.5784 36.4032C70.7777 36.532 71.0064 36.6076 71.2429 36.6229C71.4616 36.6229 71.8126 36.5409 71.8747 36.3967C72.1506 35.7377 72.3433 35.0525 72.5914 34.305L72.5865 34.3116ZM34.6883 33.7707C34.1479 33.7707 33.9912 33.9231 34.1022 34.3919C34.2132 34.8607 34.383 35.3017 34.5267 35.7557C34.8385 36.7393 34.863 36.7524 35.8132 36.477C35.855 36.4623 35.8982 36.4524 35.9422 36.4475C36.2687 36.4131 36.2867 36.2213 36.1887 35.9705C35.9846 35.441 35.7773 34.9148 35.5748 34.3854C35.507 34.2044 35.3858 34.0486 35.2273 33.9388C35.0689 33.8289 34.8809 33.7703 34.6883 33.7707ZM32.6981 19.2391C32.4533 18.7752 32.2916 18.3965 32.068 18.0572C31.7137 17.5179 31.17 17.3474 30.5545 17.4277C30.3663 17.4433 30.1898 17.5258 30.0569 17.6604C29.924 17.7951 29.8434 17.973 29.8296 18.1621C29.8068 18.3883 29.8998 18.7686 30.0566 18.8473C30.8337 19.2325 31.6729 19.3554 32.6981 19.2358V19.2391ZM74.0967 19.221C74.531 19.339 75.7048 19.2079 76.3203 18.9948C76.7024 18.8637 76.8803 18.6211 76.8232 18.2178C76.766 17.8146 76.5816 17.5064 76.1505 17.4343C75.1301 17.2589 74.1146 18.1473 74.0967 19.2177V19.221Z" fill="#AE894C"/>
<path d="M53.2895 45.7619C43.4937 45.8078 35.3894 37.697 35.3502 27.8208C35.331 25.4475 35.7791 23.0939 36.6686 20.895C37.5581 18.6961 38.8716 16.6953 40.5336 15.0076C42.1955 13.32 44.1732 11.9786 46.353 11.0606C48.5329 10.1426 50.8718 9.66604 53.2356 9.65834C62.8681 9.62064 71.2958 17.2889 71.2452 27.9175C71.1962 37.9642 62.8388 45.7783 53.2895 45.7619ZM53.1263 11.1533C45.0415 10.9713 36.9861 17.8495 36.8098 27.411C36.6351 36.9086 44.5876 45.062 54.7507 44.2358C63.2322 43.5474 71.2092 35.5808 69.557 24.9735C68.1464 15.9136 59.9621 10.9566 53.6373 11.1828C53.7513 11.4626 53.8884 11.7324 54.047 11.9893C54.4911 12.5876 54.976 13.1564 55.4348 13.7449C56.0225 14.5038 56.0225 15.0923 55.3613 15.7775C54.8977 16.2578 54.8242 16.6971 55.1442 17.2987C55.5997 18.1495 55.4429 18.5724 54.6283 19.0854C54.5532 19.1346 54.4748 19.1789 54.3981 19.2231C53.6552 19.6641 53.5573 20.0526 54.0046 20.8083C54.3148 21.3344 54.6332 21.859 54.9385 22.3884C55.0144 22.5427 55.081 22.7014 55.1376 22.8638C54.3638 22.9802 54.0226 23.3703 54.2152 23.9719C54.3001 24.2358 54.5646 24.4637 54.7932 24.6538C55.0217 24.844 55.2242 24.9817 55.0609 25.2997C54.1548 25.5144 54.0373 25.9308 54.6723 26.6307L54.7344 26.6963C55.1442 27.1176 54.8128 27.5421 54.7246 27.9568C54.6951 28.0989 54.6168 28.226 54.5034 28.3159C54.39 28.4058 54.2487 28.4528 54.1042 28.4486C53.7483 28.4683 53.3907 28.4748 53.0332 28.4748C52.1467 28.4748 51.9246 28.2667 51.7663 27.388C51.6944 26.9897 51.8806 26.7471 52.1303 26.4881C52.5695 26.0308 52.4716 25.5128 51.9459 25.3571C51.8206 25.307 51.6999 25.2461 51.5851 25.1751C51.6567 25.0201 51.7431 24.8725 51.843 24.7342C51.9477 24.6511 52.061 24.5797 52.181 24.5211C52.3437 24.3887 52.4643 24.2113 52.5279 24.0109C52.5914 23.8105 52.5951 23.5958 52.5385 23.3933C52.4324 23.0146 52.1352 22.9556 51.8038 22.9392C51.7065 22.9192 51.6109 22.8912 51.5181 22.8556C51.905 22.1819 52.2642 21.5443 52.6299 20.923C53.1393 20.0444 53.0724 19.7428 52.2365 19.1936C51.1426 18.4757 51.0659 18.1839 51.6781 17.0528C51.9491 16.5496 51.905 16.2857 51.4871 15.9054C50.63 15.1415 50.5663 14.6153 51.2585 13.7088C51.7304 13.0925 52.2381 12.5073 52.7165 11.8926C52.8713 11.6554 53.0088 11.4072 53.1279 11.15L53.1263 11.1533ZM53.3287 12.2221C52.803 12.8778 52.2838 13.4908 51.8038 14.135C51.6767 14.3342 51.6056 14.5641 51.5981 14.8005C51.5703 15.2284 51.8806 15.5415 52.3295 15.607C52.8552 15.6857 53.0087 15.5808 53.1573 15.0431L53.3581 14.3252C53.5009 14.5395 53.5905 14.7852 53.6193 15.0415C53.6732 15.4874 53.9115 15.6529 54.3491 15.6152C54.7866 15.5775 55.0723 15.3808 55.0674 14.935C55.0659 14.6436 54.9803 14.3589 54.8209 14.1154C54.3654 13.4679 53.8511 12.8696 53.3271 12.2221H53.3287ZM53.3989 18.5822C54.1728 18.5822 54.4275 18.3707 54.4275 17.7364C54.4275 16.9512 54.1156 16.5725 53.4626 16.566C52.692 16.5578 52.3034 16.961 52.3083 17.7642C52.3132 18.315 52.674 18.5855 53.4005 18.5822H53.3989Z" fill="#AE894C"/>
<path d="M53.965 55.5983C54.0334 55.9059 54.0782 56.2182 54.0989 56.5327C54.1218 57.8178 54.1201 59.1046 54.1103 60.3897C54.0787 60.623 54.024 60.8525 53.9471 61.0749C54.1512 61.3946 54.1495 61.8732 53.8736 62.0863C53.5977 62.2994 52.9626 62.2502 52.7406 62.024C52.494 61.765 52.5038 61.3011 52.832 60.8766C52.5507 60.796 52.2627 60.7411 51.9716 60.7127C50.9137 60.7012 49.8492 60.7127 48.7994 60.7258C48.6361 60.7258 48.481 60.7127 48.3096 60.7045V59.6455C48.6884 59.7127 49.0231 59.775 49.3578 59.8308C49.4728 59.8569 49.591 59.8668 49.7088 59.8603C50.0696 59.8209 50.432 59.775 50.7879 59.7062C50.8777 59.6881 50.9512 59.5685 51.0247 59.4964C50.9186 59.3898 50.8173 59.2029 50.6981 59.1947C50.3145 59.1652 49.9259 59.1947 49.539 59.2095C49.3627 59.2095 49.1863 59.2095 49.0116 59.2095C48.9529 59.2095 48.8484 59.1882 48.8484 59.1669C48.7797 58.7274 48.7394 58.2839 48.7276 57.8391C48.7276 57.7244 48.9545 57.5375 49.0998 57.5113C49.38 57.485 49.662 57.485 49.9422 57.5113C50.1927 57.531 50.4444 57.531 50.6949 57.5113C50.801 57.4949 50.8875 57.3474 50.9822 57.2506C50.8761 57.1588 50.7684 56.9851 50.6557 56.9867C50.0353 56.9867 49.4165 57.0441 48.7961 57.0654C48.6329 57.0654 48.3243 57.0539 48.3161 57.0064C48.2696 56.728 48.2696 56.4438 48.3161 56.1655C48.3276 56.1016 48.5855 56.0442 48.7308 56.0425C49.8182 56.0425 50.9055 56.0212 51.9961 56.0557C52.4385 56.0704 52.6965 55.936 52.7814 55.4918L52.6606 55.5082C52.6295 55.2492 52.5969 54.9885 52.5659 54.7279C52.5659 54.6836 52.5806 54.6246 52.5577 54.5968C51.934 53.8263 52.5577 53.1739 52.7406 52.4658C52.8091 52.2101 52.8744 51.8658 52.7618 51.6659C52.303 50.8462 52.334 50.0119 52.4908 49.1415C52.6279 48.3776 52.7389 47.6088 52.8581 46.8466C52.8989 46.5859 52.9985 46.3761 53.2957 46.3712C53.5928 46.3663 53.7365 46.5253 53.7854 46.8351C53.9095 47.6924 54.0467 48.5481 54.2067 49.3988C54.3585 50.0898 54.2728 50.8121 53.9634 51.4478C53.857 51.6364 53.8027 51.8501 53.8061 52.0669C53.8096 52.2836 53.8706 52.4954 53.983 52.6805C54.1102 52.9502 54.2156 53.2298 54.2981 53.5165C54.3197 53.5563 54.3314 53.6007 54.3324 53.646C54.2148 54.2476 54.1022 54.8558 53.965 55.5983ZM51.8622 58.0571C51.3055 58.1063 50.8108 58.1571 50.3128 58.1883C50.0924 58.203 49.8655 58.1538 49.6451 58.1768C49.5537 58.1883 49.4737 58.3145 49.3871 58.3883C49.472 58.4669 49.5504 58.6112 49.6386 58.6128C50.37 58.6391 51.1079 58.6391 51.8622 58.6456V58.0571Z" fill="#AE894C"/>
<path d="M63.4252 50.9072C63.5231 51.481 63.226 51.8727 62.888 52.2268C61.8043 53.3551 60.3591 54.0638 58.8065 54.2283C58.1044 54.3326 57.3878 54.2714 56.7133 54.0495C56.0389 53.8276 55.4252 53.451 54.9208 52.9497C54.8265 52.8573 54.7622 52.7385 54.7363 52.6087C55.0482 52.7153 55.3616 52.8185 55.6718 52.9366C56.9159 53.3923 58.1812 53.6824 59.515 53.4546C60.9991 53.1956 62.2219 52.5071 63.1215 51.2777C63.2195 51.1466 63.3239 51.0318 63.4252 50.9072Z" fill="#AE894C"/>
<path d="M52.0796 52.5707C51.2632 53.7493 48.9155 54.8082 46.256 53.7952C44.7082 53.2067 42.9907 51.8855 43.1311 50.8135C43.2557 50.9225 43.373 51.0397 43.4821 51.1643C44.1615 52.0799 45.095 52.7738 46.1655 53.159C47.236 53.5442 48.396 53.6036 49.5 53.3297C50.2739 53.133 51.033 52.8707 51.8004 52.6412C51.8787 52.6215 51.962 52.6002 52.0796 52.5707Z" fill="#AE894C"/>
<path d="M52.3695 30.4924C52.4348 29.8367 52.4266 29.8367 51.8405 29.8367C51.4242 29.8367 51.0046 29.8547 50.5899 29.817C49.2364 29.6974 48.3434 28.6696 48.3761 27.3041C48.3761 27.0713 48.4071 26.8369 48.425 26.5615C48.2687 26.5679 48.1128 26.5827 47.9581 26.6058C46.652 26.891 45.6104 26.4255 44.8479 25.4092C43.1663 23.1651 43.0733 20.3866 44.7108 18.1081C45.7067 16.7197 47.1189 16.1558 48.8201 16.4132C49.4353 16.4864 49.9971 16.7997 50.3842 17.2853C51.016 18.095 50.8152 19.1048 49.9287 19.6244C49.8773 19.6575 49.8226 19.685 49.7654 19.7064C48.5573 20.1195 48.4071 20.8456 48.9654 22.0554C49.3246 22.8356 49.6887 23.606 50.5507 23.9749C50.6062 23.9995 50.6389 24.2683 50.5801 24.347C50.2389 24.7978 49.8568 25.2174 49.5107 25.6583C49.2478 25.9787 49.0838 26.3692 49.0388 26.7818C48.9939 27.1944 49.07 27.6113 49.2577 27.9811C49.594 28.7237 50.2503 28.9794 51.016 28.9827C52.536 28.9925 54.056 28.9827 55.5759 28.9827C56.3482 28.9827 56.9735 28.7106 57.331 27.9795C57.5229 27.6283 57.6052 27.2274 57.5674 26.8287C57.5295 26.4301 57.3732 26.052 57.1188 25.7436C56.7057 25.201 56.2616 24.6797 55.8127 24.1224C55.8755 24.0539 55.9468 23.9939 56.0249 23.9437C57.1678 23.4028 57.6167 22.3734 57.8796 21.2423C58.0298 20.5997 57.7767 20.1899 57.1873 19.89C56.9882 19.79 56.7776 19.708 56.5882 19.5916C55.7572 19.0818 55.5596 18.1163 56.1637 17.3541C56.8478 16.4837 57.8192 16.2526 58.8526 16.3591C60.7677 16.5591 61.935 17.7459 62.5995 19.4736C63.3358 21.3816 63.135 23.2356 62.0656 24.9748C61.2869 26.2419 60.2077 26.9336 58.6551 26.6042C58.4927 26.5819 58.3292 26.5693 58.1653 26.5665C58.1653 26.9074 58.1653 27.2025 58.1653 27.4975C58.1408 28.845 57.2396 29.7695 55.8894 29.8203C55.4731 29.8367 55.0551 29.8301 54.6388 29.8367C54.4233 29.8367 54.216 29.8367 54.2111 30.1531C54.2111 30.4317 54.3335 30.5252 54.5882 30.5219C54.6778 30.5147 54.7675 30.5341 54.8462 30.5776C54.9719 30.6612 55.1727 30.776 55.1727 30.8809C55.1727 31.0202 55.047 31.2595 54.9327 31.2874C54.4707 31.4038 54.456 31.7464 54.4184 32.107C54.3844 32.4471 54.3299 32.7849 54.2551 33.1184C54.1458 33.5921 54.1849 33.6659 54.6617 33.7265C54.7651 33.7233 54.8679 33.744 54.9621 33.7872C55.0666 33.8691 55.1955 34.0019 55.1939 34.115C55.1795 34.1797 55.1485 34.2396 55.1042 34.2887C55.0598 34.3378 55.0036 34.3745 54.9409 34.3953C54.3433 34.4035 54.2878 34.7805 54.3074 35.2428C54.3433 36.0018 54.3596 36.7623 54.4037 37.5213C54.4071 37.7024 54.467 37.8779 54.5751 38.0229C54.9017 38.3966 54.7384 38.6933 54.5311 39.0474C53.9596 40.0195 54.0968 40.2522 54.6943 40.862C54.789 40.9587 54.8576 41.2538 54.7923 41.3128C54.2535 41.8373 54.1539 42.5438 53.9351 43.2061C53.8356 43.5126 53.8062 43.9421 53.3441 43.9437C52.8821 43.9454 52.8397 43.5323 52.7319 43.2208C52.5066 42.575 52.3793 41.8947 51.8699 41.3734C51.785 41.2866 51.8176 40.9309 51.9189 40.8423C52.6699 40.1867 52.5311 39.8359 52.0674 39.0392C51.8568 38.6786 51.7409 38.4311 52.0413 38.0327C52.2454 37.7606 52.2944 37.3295 52.3107 36.9656C52.3417 36.2657 52.2911 35.5608 52.2911 34.8592C52.2911 34.5199 52.0413 34.5166 51.8209 34.4281C51.6582 34.3372 51.507 34.2272 51.3703 34.1003C51.5276 33.9888 51.6912 33.8865 51.8601 33.7937C51.9572 33.7553 52.0611 33.7374 52.1654 33.7413C52.4739 33.7233 52.5311 33.5462 52.4821 33.279C52.3923 32.7873 52.3319 32.2824 52.2144 31.7939C52.1396 31.6189 52.0243 31.4644 51.878 31.3431C51.7376 31.1907 51.5744 31.0612 51.4209 30.9218C51.5926 30.7789 51.7743 30.6485 51.9646 30.5317C52.0965 30.4966 52.2333 30.4833 52.3695 30.4924ZM62.0493 21.4521C62.0493 21.303 62.0493 21.1521 62.0493 21.003C61.9514 19.1671 60.6257 17.5918 58.9228 17.2869C58.0788 17.1344 57.1269 17.7065 56.9637 18.4638C56.8527 18.9687 57.0371 19.2195 57.5416 19.19C57.7358 19.1644 57.9328 19.2075 58.0988 19.3119C58.2647 19.4163 58.3893 19.5755 58.451 19.7621C58.5571 20.0359 58.5767 20.344 58.6779 20.6227C58.8035 21.043 58.9772 21.4473 59.1955 21.8275C59.3734 22.0996 59.6934 22.2832 59.9628 22.4832C60.4395 22.8455 60.7987 23.2782 60.6991 23.9159C60.5946 24.5879 60.1391 24.9945 59.5204 25.1912C59.3767 25.2371 59.1726 25.0879 58.9963 25.0272C59.0763 24.8633 59.1596 24.6814 59.2412 24.5125C59.2575 24.4814 59.3212 24.4781 59.362 24.4584C59.8665 24.2175 60.0151 23.8634 59.7359 23.3766C59.5385 23.0644 59.2843 22.7925 58.9865 22.575C58.6322 22.3012 58.3335 22.3783 58.0755 22.752C57.8107 23.1143 57.5764 23.4981 57.3751 23.8995C57.2821 24.1246 57.2757 24.3764 57.3571 24.606C57.9008 26.0108 60.0249 26.155 60.8379 25.024C61.6069 23.9519 62.0722 22.7881 62.0493 21.4538V21.4521ZM47.2348 25.8911L47.2904 25.7665C48.1932 25.8091 48.8512 25.419 49.2495 24.6191C49.3003 24.523 49.3315 24.4177 49.3413 24.3093C49.3511 24.2009 49.3393 24.0917 49.3066 23.988C49.0612 23.5116 48.7709 23.0598 48.4397 22.6389C48.3653 22.5637 48.2739 22.5077 48.1733 22.4757C48.0726 22.4437 47.9657 22.4367 47.8618 22.4553C47.5894 22.5387 47.345 22.6954 47.1551 22.9084C46.9651 23.1213 46.8369 23.3825 46.7842 23.6634C46.7091 24.0568 46.8316 24.3502 47.2348 24.4634C47.5532 24.5552 47.7067 24.7584 47.594 25.0617C47.465 25.4043 47.1663 25.26 46.9508 25.1748C46.394 24.9551 45.9712 24.5797 45.8945 23.9503C45.8177 23.3208 46.1475 22.8176 46.6504 22.475C47.4063 21.9619 47.9157 21.3521 47.9434 20.3686C47.9663 19.572 48.4169 19.0933 49.1973 19.2097C49.5124 19.2572 49.6168 19.0769 49.6332 18.79C49.6357 18.4516 49.5222 18.1225 49.3117 17.8581C49.1013 17.5936 48.8066 17.4099 48.4773 17.3377C48.1045 17.2542 47.7181 17.2538 47.3452 17.3365C46.9723 17.4192 46.622 17.583 46.3189 17.8164C43.5859 19.7932 44.3875 23.7978 46.0969 25.2879C46.4104 25.5747 46.8512 25.696 47.2348 25.8927V25.8911Z" fill="#AE894C"/>
<path d="M57.6621 18.3037C57.9772 17.8578 58.5029 17.6251 58.929 17.7578C59.2556 17.8578 59.5135 18.0529 59.4629 18.4266C59.4123 18.8004 59.12 18.8807 58.7968 18.8823C58.574 18.8923 58.3525 18.8443 58.1536 18.7429C57.9548 18.6415 57.7855 18.4902 57.6621 18.3037Z" fill="#AE894C"/>
<path d="M47.9161 18.8856C47.4997 18.8856 47.2222 18.6725 47.2369 18.348C47.2519 18.1752 47.3335 18.0151 47.4643 17.9018C47.5951 17.7885 47.7648 17.731 47.9373 17.7415C48.3193 17.7415 48.9675 18.1218 48.9675 18.3381C48.9675 18.5545 48.3356 18.8791 47.9161 18.8856Z" fill="#AE894C"/>
</g>
<defs>
<clipPath id="clip0_1_1141">
<rect width="106" height="80" fill="white"/>
</clipPath>
</defs>
</svg>
