<svg width="54" height="63" viewBox="0 0 54 63" fill="none" xmlns="http://www.w3.org/2000/svg">
<path d="M35.9208 7.70429C36.0236 7.47808 36.231 7.22728 36.2473 6.96828C36.2677 6.29738 36.2415 5.62586 36.1689 4.95861C36.1198 4.72504 36.0067 4.50987 35.8424 4.33735C33.622 1.71461 28.9495 2.23424 27.5585 5.12089C27.3621 5.53746 27.2421 5.98611 27.2042 6.44537C27.1454 7.14368 27.1879 7.85018 27.1862 8.5534C27.1862 8.80092 27.1389 8.99926 26.827 9.00582C26.5152 9.01238 26.4564 8.81731 26.4581 8.56651C26.4581 7.98295 26.4581 7.39939 26.476 6.81583C26.5038 5.3094 25.7903 4.21113 24.5675 3.43251C22.7928 2.30637 20.2296 2.39489 18.5643 3.59643C17.8998 4.07508 17.3545 4.61765 17.4084 5.53561C17.4411 6.08311 17.4002 6.63552 17.4509 7.17482C17.4704 7.37644 17.6615 7.56004 17.7594 7.72887C18.6002 7.29448 18.3847 6.50274 18.5659 5.86837C18.5986 5.75526 18.6068 5.63396 18.6296 5.51594C18.6917 5.20121 18.8353 4.97009 19.2027 5.06844C19.4802 5.14056 19.5716 5.48971 19.4753 5.82247C19.379 6.15523 19.2533 6.51094 19.2859 6.84043C19.3382 7.37153 19.7512 7.66003 20.2459 7.48136C21.3316 7.07647 22.3585 7.37645 23.4018 7.60266C23.582 7.65514 23.749 7.74568 23.8916 7.86821C23.263 7.70429 22.7047 7.74363 22.2671 8.39439C22.161 8.15015 22.1365 7.95181 22.0271 7.87148C21.8168 7.70743 21.5742 7.5901 21.3153 7.52725C21.0345 7.47152 20.9708 7.71248 20.9267 7.95673C20.8663 8.29768 20.5251 8.47144 20.1659 8.30588C19.8067 8.14032 19.6761 8.29276 19.6386 8.58454C19.585 8.95137 19.573 9.3231 19.6027 9.69265C19.6402 10.0697 19.9504 9.99754 20.1953 9.93361C20.7847 9.77789 21.3659 9.58938 21.9569 9.44185C22.5479 9.29432 23.121 9.19105 23.7006 9.05499C24.3863 8.89107 24.6687 8.55503 24.7128 7.8764C24.7569 7.19777 24.4973 6.79453 23.8459 6.58307C23.2973 6.40439 22.7275 6.28965 22.1136 6.13229L22.3128 5.56676C22.2932 5.54217 22.2867 5.52578 22.2753 5.51922C21.6973 5.19138 21.5863 4.99467 21.7496 4.60454C21.9128 4.21441 22.383 4.00295 22.8924 4.22261C23.2924 4.39636 23.7348 4.61274 23.9944 4.94058C24.4842 5.56348 24.974 6.2372 25.2614 6.96828C25.7299 8.14196 25.0377 9.14351 23.8099 9.44513C22.3243 9.81067 20.8141 10.1516 19.4018 10.7188C16.3684 11.9351 13.8199 13.8497 11.9146 16.5511C9.86077 19.4623 8.76365 22.7113 8.46978 26.2683C8.16937 29.9041 8.7963 33.3563 10.5546 36.5298C13.1277 41.1737 16.886 44.398 22.1055 45.729C22.8108 45.9093 23.5438 45.9782 24.2524 46.147C24.4385 46.1913 24.7275 46.4191 24.7242 46.5601C24.7179 47.5097 24.658 48.4581 24.5446 49.4009C24.4989 49.7566 24.2181 50.0811 24.0842 50.5008L25.4916 49.2337L25.6009 49.273C25.4866 49.6271 25.4377 50.0205 25.2499 50.3254C24.223 51.9761 23.0296 52.4154 21.2859 52.1531C20.05 51.9679 19.0117 51.4007 18.0419 50.6499C17.7373 50.4337 17.4875 50.1487 17.3126 49.8179C17.1376 49.487 17.0424 49.1197 17.0345 48.7452C17.0068 47.9995 16.9095 47.2581 16.7439 46.5306C16.4724 46.9956 16.225 47.4743 16.0027 47.9649C15.7207 48.6227 15.502 49.3061 15.3497 50.0057C15.2697 50.4336 15.4199 50.9089 15.4917 51.3597C15.5309 51.6089 15.655 51.8515 15.6729 52.0924C15.6682 52.1599 15.647 52.2251 15.6111 52.2823C15.5752 52.3395 15.5258 52.3869 15.4672 52.4203C15.3611 52.4514 15.2093 52.3416 15.0819 52.2826C15.0461 52.2549 15.0213 52.2155 15.0117 52.1711C14.6476 50.7499 14.1693 49.3271 15.2484 47.9829C15.4643 47.6851 15.6617 47.3741 15.8395 47.0519L15.7399 46.9257L14.8909 47.3814L14.7538 47.3158L15.1782 46.0716C14.3832 46.1028 13.6044 46.2356 13.033 46.9355C12.6199 47.4469 12.5938 47.7666 12.9938 48.2862C13.1456 48.4829 13.2975 48.6829 13.4623 48.8993C12.8224 48.9222 12.3946 48.619 12.2885 48.0698C12.2133 47.739 12.2317 47.3936 12.3417 47.0727C12.4516 46.7518 12.6486 46.4681 12.9105 46.2536C13.235 46.0059 13.5351 45.7276 13.8068 45.4225C13.5347 45.4981 13.2701 45.5991 13.0166 45.7241C12.4697 46.052 11.9489 46.4323 11.4167 46.788C9.54241 48.042 8.10733 47.8256 6.73429 46.0257C5.29758 44.1439 4.90248 42.0769 5.75471 39.8197C5.82523 39.6122 5.853 39.3924 5.83635 39.1738C5.36452 39.5935 4.83881 39.6656 4.27882 39.6115C3.51475 39.5509 2.75231 38.7313 2.81762 37.9723C2.83796 37.6934 2.95325 37.4301 3.14414 37.2265C3.78611 36.6451 4.45805 36.0979 5.15717 35.5872C5.47227 35.3561 5.88042 35.2594 6.23634 35.0775C6.34855 35.0018 6.45109 34.9126 6.54164 34.8119C6.42573 34.7365 6.3147 34.607 6.19226 34.5939C5.36615 34.507 4.61024 34.8037 3.85107 35.0693C3.55556 35.1725 3.25026 35.2528 2.87149 35.3692C3.12455 34.5398 3.8674 34.5168 4.39637 34.107C4.27135 34.0379 4.14084 33.9792 4.00617 33.9316C0.740915 33.0793 -0.501518 29.6402 0.18092 26.8142C0.507906 25.3842 1.34767 24.125 2.54007 23.2768C3.19312 22.7981 3.89188 22.3637 4.64126 21.8621C4.32943 21.8031 4.04862 21.7392 3.76617 21.6982C3.45761 21.6556 3.13271 21.6786 2.84211 21.5868C2.69354 21.5409 2.60211 21.3065 2.48456 21.1573C2.64782 21.1032 2.81925 20.9934 2.97435 21.0048C3.79883 21.1016 4.6184 21.236 5.44125 21.3474C5.60371 21.3704 5.76857 21.3704 5.93104 21.3474C6.19715 21.3065 6.53348 21.331 6.42082 20.8655C6.39633 20.7688 6.52368 20.6327 6.6249 20.4278L4.33922 19.6771C4.04209 19.5804 3.74005 19.4935 3.44944 19.3804C3.27962 19.3091 3.12873 19.199 3.00884 19.0588C2.88895 18.9186 2.80339 18.7522 2.75897 18.5728C2.71455 18.3935 2.71252 18.2062 2.75304 18.026C2.79355 17.8457 2.87549 17.6774 2.99231 17.5346C3.13442 17.3598 3.31303 17.2185 3.51552 17.1207C3.718 17.0228 3.93943 16.9708 4.16414 16.9683C4.38885 16.9658 4.61137 17.0128 4.81597 17.1062C5.02057 17.1995 5.20225 17.3368 5.34819 17.5084C5.81248 18.0572 6.31672 18.5706 6.85674 19.0443C6.66082 18.6854 6.47144 18.3215 6.26899 17.9657C5.08534 15.8921 4.82248 13.7382 5.96859 11.5958C6.7147 10.2057 7.86897 9.18122 9.48037 8.83206C10.2657 8.66814 11.0248 8.84681 11.7563 9.11564C12.5481 9.38889 13.395 9.46153 14.2215 9.3271C14.5742 9.27957 14.6476 9.12384 14.4452 8.83534C14.3864 8.7501 14.2966 8.68781 14.2313 8.60585C14.166 8.52389 14.1448 8.4698 14.0468 8.31243C14.246 8.37472 14.3521 8.40259 14.455 8.44193C14.9089 8.62061 15.3644 8.796 15.8133 8.98943C15.9198 9.03756 16.0092 9.11701 16.0697 9.21728C16.2166 9.47627 16.4109 9.43038 16.5986 9.30743C16.8337 9.14351 16.7619 8.95337 16.6166 8.77141C16.5602 8.70219 16.4942 8.64147 16.4207 8.5911C15.1146 7.74035 14.7668 6.46013 14.8272 5.00943C14.8236 4.75473 14.8466 4.50035 14.8958 4.25047C14.935 4.10786 15.095 3.99803 15.1995 3.87345C15.3138 3.99476 15.5015 4.1013 15.526 4.24064C15.5853 4.57922 15.6056 4.92354 15.5864 5.26678C15.5211 6.53553 16.1464 7.46169 17.0247 8.26982C17.058 8.2992 17.0961 8.3225 17.1374 8.33866C17.1603 8.34686 17.1913 8.33866 17.2778 8.32555C16.8827 7.66987 16.9774 6.97156 17.0166 6.2749C17.0287 6.09556 17.0177 5.9154 16.9839 5.73888C16.917 5.42087 16.8745 5.04057 16.3717 5.30285C16.5137 3.99148 19.0215 2.29162 21.0165 2.04082C23.1585 1.77199 24.8352 2.62929 26.3405 4.08327C26.2915 3.91935 26.2426 3.75543 26.1903 3.59151C25.9168 2.71706 25.8796 1.78535 26.0826 0.891731C26.1773 0.47865 26.3405 0 26.8303 0C27.3201 0 27.4834 0.491762 27.5634 0.895007C27.7462 1.84575 27.7609 2.79649 27.3821 3.71609C27.343 3.8128 27.3087 3.91279 27.2776 4.01115C27.2816 4.06669 27.2914 4.12164 27.307 4.17507C29.609 1.75559 32.2229 1.30317 35.1143 2.90632C36.0628 3.43251 36.884 4.13573 37.351 5.33399C36.8383 5.09139 36.7224 5.3553 36.6718 5.64872C36.6437 5.90013 36.6311 6.15306 36.6342 6.40603C36.6016 7.03385 36.5673 7.66003 36.5346 8.26818C37.4114 7.5584 38.0416 6.62896 38.0514 5.35202C38.0305 5.02417 38.0376 4.69513 38.0726 4.36849C38.1069 4.1849 38.3012 4.03082 38.4236 3.86525C38.5297 4.01934 38.724 4.17343 38.7273 4.33079C38.7584 5.04544 38.7387 5.7614 38.6685 6.47324C38.6182 6.82319 38.4996 7.15973 38.3195 7.46354C38.1393 7.76734 37.9012 8.03243 37.6187 8.24359C37.4685 8.36489 37.3199 8.48947 37.173 8.61733C36.7518 8.98287 36.791 9.18122 37.2057 9.33366L39.4293 8.28785L39.4979 8.38292C39.3536 8.54162 39.22 8.70973 39.0979 8.88616C38.9542 9.1222 38.9607 9.28612 39.3199 9.32219C40.2365 9.42555 41.1644 9.34191 42.048 9.0763C44.7664 8.24359 47.4243 9.90903 48.1834 12.8645C48.5753 14.3923 48.3565 15.8626 47.6937 17.274C47.4145 17.8658 47.0977 18.4395 46.8382 19.0591C47.0014 18.9083 47.1647 18.764 47.3165 18.6018C47.6888 18.1936 48.0235 17.7477 48.4251 17.3723C49.1287 16.7167 50.1181 16.8429 50.6846 17.6264C50.785 17.7649 50.8532 17.9242 50.8842 18.0925C50.9153 18.2609 50.9084 18.4341 50.8641 18.5995C50.8197 18.7649 50.7391 18.9182 50.6282 19.0482C50.5172 19.1782 50.3786 19.2816 50.2226 19.3509C49.7328 19.5492 49.2022 19.6787 48.6945 19.8426C48.1475 20.0246 47.6039 20.2229 47.0618 20.4131C47.2773 21.3589 47.279 21.3966 48.1883 21.3409C48.8643 21.3015 49.5353 21.1622 50.2095 21.0638C50.3505 21.0195 50.4963 20.9925 50.6438 20.9835C50.8125 21.0201 50.9768 21.0751 51.1336 21.1474C51.0046 21.2999 50.8969 21.5474 50.7418 21.5835C50.252 21.6949 49.7475 21.7245 49.2496 21.7917C49.1482 21.8175 49.0488 21.8509 48.9524 21.8916C49.1581 22.0064 49.3067 22.0834 49.4504 22.1687C50.781 22.9555 52.0626 23.8079 52.8332 25.211C54.1997 27.6813 53.7523 31.0122 51.8536 32.7055C51.2757 33.2254 50.5946 33.6165 49.8553 33.853C49.6789 33.9103 49.5075 33.9874 49.2463 34.0874C49.7802 34.5267 50.4806 34.6086 50.8201 35.3151C50.6157 35.3021 50.4127 35.273 50.2128 35.2283C49.6757 35.0545 49.1532 34.8217 48.6063 34.6857C48.2149 34.6098 47.8159 34.5807 47.4177 34.5988C47.3165 34.5988 47.2137 34.7316 47.1108 34.8037C47.1875 34.8988 47.2512 35.0627 47.3426 35.0807C48.4512 35.2971 49.1598 36.12 49.9695 36.7904C50.0952 36.8953 50.2177 37.0068 50.3451 37.1084C50.8789 37.5314 50.9818 37.9985 50.6716 38.6083C50.1622 39.6197 49.0667 39.9394 48.1018 39.3607L47.7541 39.1574C47.7835 39.398 47.8337 39.6355 47.9043 39.8672C49.0047 42.449 47.8765 45.4848 45.9451 46.965C44.9655 47.7125 43.9533 47.7944 42.9068 47.1765C42.2146 46.7667 41.5697 46.2765 40.8807 45.8651C40.5281 45.684 40.1631 45.5284 39.7885 45.3996C39.7689 45.4455 39.7509 45.4914 39.733 45.5356C40.0824 45.8028 40.4481 46.0487 40.7762 46.3388C41.0524 46.5825 41.2475 46.9054 41.3351 47.2639C41.4227 47.6224 41.3986 47.9993 41.266 48.3436C41.088 48.7927 40.6995 48.914 40.1623 48.9534C40.3811 48.6616 40.5574 48.4354 40.7256 48.2043C41.0244 47.7944 40.9705 47.4387 40.6783 47.0207C40.1183 46.2159 39.2791 46.1552 38.4432 46.0798L38.8905 47.3371L38.7697 47.4092L37.8946 46.9175L37.7901 47.0339C37.9583 47.3393 38.1419 47.6358 38.3403 47.9223C39.0032 48.7845 39.2481 49.7156 38.9297 50.7844C38.8367 51.0958 38.8399 51.44 38.7762 51.7564C38.7574 51.9342 38.692 52.1039 38.5869 52.2482C38.5303 52.3088 38.4604 52.3552 38.3827 52.3837C38.305 52.4122 38.2217 52.4219 38.1395 52.4121C38.035 52.3744 37.9942 52.1367 37.9436 51.981C37.938 51.9235 37.9518 51.8657 37.9828 51.8171C38.6669 50.5057 38.2293 49.2828 37.6889 48.0797C37.4587 47.5682 37.1452 47.0961 36.8302 46.5323C36.7322 47.3519 36.6114 48.0911 36.564 48.8403C36.5134 49.6189 36.151 50.191 35.5698 50.6631C34.1951 51.7826 32.631 52.4187 30.8613 52.1761C29.6743 52.0121 28.7895 51.2942 28.2719 50.191C28.1511 49.8994 28.1051 49.5821 28.138 49.2681L29.5813 50.5795L29.7021 50.4844C29.2263 49.9131 28.9439 49.2047 28.8956 48.4616C28.8727 47.9239 28.858 47.3863 28.8515 46.8486C28.8515 46.4224 29.0148 46.1667 29.4866 46.0995C31.0968 45.8904 32.6734 45.4733 34.1771 44.8586C36.5167 43.8751 38.4448 42.3244 40.1819 40.5032C41.8331 38.7892 43.1255 36.7604 43.9827 34.5365C45.4145 30.8024 45.5745 26.9863 44.6684 23.1194C44.0227 20.2756 42.6988 17.6317 40.8105 15.4151C38.8014 13.0594 36.1824 11.3075 33.2433 10.3533C32.1004 9.97459 30.9298 9.68281 29.7592 9.39923C28.5886 9.11565 27.9846 8.19769 28.3323 7.01746C28.6173 6.0103 29.2402 5.13299 30.0956 4.53406C30.4461 4.32146 30.8427 4.19717 31.2515 4.17179C31.578 4.13737 31.8425 4.36358 31.9143 4.7242C31.9861 5.08483 31.7935 5.3176 31.4719 5.45529L31.2955 5.53397C31.3821 5.74707 31.4588 5.9487 31.5519 6.16999C30.9853 6.29621 30.4433 6.39128 29.9192 6.54373C29.1846 6.75683 28.9397 7.07975 28.9478 7.74363C28.9478 8.53537 29.1617 8.80912 29.9274 9.01238L33.4653 9.94345C33.9355 10.0664 34.0008 10.0336 34.0433 9.52053C34.0626 9.19674 34.0516 8.87186 34.0106 8.55012C33.9812 8.29604 33.8294 8.2108 33.5616 8.28785C32.951 8.46652 32.8449 8.38784 32.68 7.8092C32.6425 7.68134 32.4661 7.49611 32.3698 7.5043C32.1292 7.53429 31.8973 7.61411 31.689 7.73871C31.5959 7.7928 31.5976 7.9977 31.5094 8.08622C31.4213 8.17474 31.2253 8.21244 31.196 8.17474C30.796 7.68298 30.2752 7.79772 29.7266 7.90099C29.7756 7.82395 29.7903 7.76822 29.818 7.76166C30.8139 7.49119 31.7902 7.0568 32.8596 7.37317C32.9739 7.40595 33.0898 7.43382 33.2057 7.45841C33.56 7.53217 33.96 7.64036 34.1984 7.29448C34.3365 7.10697 34.4174 6.88312 34.431 6.65026C34.4446 6.4174 34.3905 6.18559 34.2751 5.98312C34.213 5.86673 34.1118 5.71429 34.138 5.61593C34.2049 5.41103 34.3012 5.13565 34.4645 5.06352C34.7094 4.95369 34.9086 5.14712 34.9673 5.42415C35.0016 5.58807 35.0212 5.75199 35.0588 5.90771C35.209 6.5257 35.0555 7.2699 35.9208 7.70429ZM42.7468 43.2997C41.3607 43.5489 40.4203 42.8457 39.6252 41.8671C39.4244 42.0425 39.2987 42.149 39.1795 42.2572C37.942 43.3702 36.6489 44.3882 35.0408 44.9324C34.3877 45.157 34.3975 45.2045 34.7143 45.8553C34.7943 46.0192 34.8514 46.1831 34.933 46.347C35.1551 46.7781 35.56 46.8011 35.8473 46.4044C35.9257 46.2946 35.9877 46.1733 36.0742 46.0766C36.3126 45.793 36.5542 45.593 36.9346 45.9126C37.124 46.0766 37.3591 46.1192 37.5208 45.8028C37.9485 44.9668 38.3142 44.7914 39.2089 44.9258C39.3727 44.9345 39.537 44.9246 39.6987 44.8963L39.4015 43.9308C39.6938 43.9587 39.8815 43.9308 40.0366 43.9964C40.6358 44.2357 41.1795 44.5439 41.5697 45.1045C41.8607 45.5189 42.1981 45.8984 42.5754 46.2356C43.537 47.1011 44.7827 47.1519 45.7982 46.3536C46.9753 45.4307 47.5941 44.2013 47.7051 42.6965C47.8063 41.2901 47.3426 40.018 46.8594 38.7427C46.8071 38.6067 46.7647 38.4657 46.719 38.3264L46.7908 38.3051L47.4439 39.0525L47.5761 38.9525C47.4612 38.0893 47.0536 37.2922 46.4218 36.6954C46.4218 36.9478 46.4218 37.1068 46.4218 37.2642C46.4218 37.4215 46.4578 37.592 46.4839 37.8051C45.9059 37.3133 45.7329 37.3724 45.4619 38.0346C45.3846 38.2605 45.2828 38.477 45.1582 38.6804C44.9166 39.0312 45.021 39.2591 45.3541 39.446C45.4406 39.4935 45.5174 39.5525 45.6186 39.6099C45.4341 39.918 45.1827 39.8705 44.941 39.7918C44.5623 39.6672 44.2602 39.4181 44.2455 39.0083C44.257 38.8973 44.2921 38.7901 44.3485 38.694C44.4048 38.5978 44.4811 38.5149 44.5721 38.451C44.928 38.21 45.1517 37.9182 45.0994 37.492C45.0554 37.2775 44.9465 37.0819 44.7875 36.9319C44.6285 36.782 44.4273 36.685 44.2113 36.6544C43.7574 36.5986 43.4929 36.8576 43.2954 37.2281C43.0766 37.6363 42.8529 38.0477 42.6243 38.4444C42.2668 39.0755 42.8203 40.2475 43.5582 40.2803C44.3566 40.3196 44.9557 40.7721 45.5843 41.1343C45.8598 41.3287 46.0499 41.6223 46.1149 41.9539C46.3092 43.0719 45.5517 44.4341 44.5345 44.9307C44.0104 45.1881 43.3182 45.1815 42.9019 44.8881C43.1223 44.7881 43.3182 44.6898 43.5207 44.6062C43.8921 44.452 44.2265 44.22 44.5016 43.9258C44.7766 43.6315 44.986 43.2817 45.1157 42.8998C45.1988 42.6317 45.1914 42.3435 45.0945 42.0802C44.8545 41.4048 43.9745 40.9016 43.2594 40.9704C42.7354 41.0196 42.4872 41.2327 42.3533 41.7458C42.2031 42.331 42.2701 42.867 42.7468 43.2948V43.2997ZM10.8485 44.898C10.6214 45.0149 10.3735 45.0856 10.1191 45.1058C9.86462 45.1261 9.60871 45.0956 9.36609 45.016C8.35549 44.6521 7.46734 43.3653 7.49183 42.2883C7.50326 41.8244 7.59795 41.3966 8.05998 41.1507C8.52202 40.9048 8.9465 40.659 9.39547 40.4295C9.52748 40.3625 9.67098 40.3213 9.81832 40.3082C10.3179 40.2705 11.144 39.4886 11.1946 38.9821C11.2027 38.8782 11.1812 38.7741 11.1326 38.6821C10.8257 38.1182 10.522 37.5527 10.1906 37.0035C10.1089 36.8581 9.97924 36.7458 9.824 36.686C9.66875 36.6262 9.49759 36.6225 9.33996 36.6757C9.14167 36.7185 8.9615 36.8221 8.82435 36.9722C8.68719 37.1222 8.59981 37.3113 8.57426 37.5133C8.49753 37.9477 8.75548 38.2264 9.09017 38.4772C9.25343 38.6001 9.43955 38.8493 9.4167 39.0198C9.36935 39.4623 9.0265 39.723 8.61508 39.8197C8.43712 39.8623 8.22488 39.7607 8.02733 39.7246C8.72936 39.1853 8.72936 39.182 8.37671 38.4608C8.30978 38.328 8.27223 38.1788 8.19876 38.051C8.08284 37.8494 7.98651 37.5756 7.80856 37.492C7.66978 37.4281 7.41836 37.61 7.18816 37.692V36.6478C6.59878 37.4002 6.10899 38.0461 6.10899 38.9116L6.24287 39.0017L6.82572 38.2854C6.83615 38.4749 6.80378 38.6643 6.73103 38.8394C6.27063 40.1377 5.81675 41.4359 5.96695 42.8539C6.13838 44.4931 6.86 45.7831 8.30814 46.6077C8.78183 46.8689 9.32932 46.9625 9.86242 46.8733C10.3955 46.7841 10.8832 46.5173 11.2469 46.1159C11.6126 45.7028 11.8999 45.211 12.3113 44.8504C12.7368 44.5132 13.1991 44.2255 13.6893 43.9931C13.7954 43.9357 14.0909 43.9931 14.1154 44.0718C14.1521 44.2539 14.1414 44.4425 14.0844 44.6193C14.0648 44.7045 13.9538 44.7701 13.7921 44.9471C14.1415 44.9176 14.3832 44.9094 14.6215 44.8783C15.3056 44.7849 15.8101 45.0422 16.055 45.6881C16.1954 46.0503 16.455 46.1339 16.708 45.9274C17.1227 45.5995 17.3447 45.7881 17.5684 46.1274C17.6337 46.2274 17.6958 46.3306 17.7676 46.4241C18.0631 46.8093 18.4664 46.7781 18.6884 46.3552C18.7912 46.1569 18.8827 45.952 18.9937 45.7586C19.2859 45.2537 19.2859 45.1832 18.7308 44.993C17.206 44.475 15.9244 43.5669 14.7162 42.5342C13.9227 41.8539 14.0632 41.7654 13.2926 42.6014C12.615 43.3407 11.7595 43.2899 10.8795 43.3555C11.3497 42.9178 11.4085 42.3883 11.3024 41.8179C11.1963 41.2474 10.8257 40.9262 10.2314 40.9753C9.71978 41.0006 9.23623 41.2176 8.8763 41.5835C8.44692 42.0326 8.33753 42.5424 8.58732 43.1079C8.73959 43.4665 8.96281 43.7903 9.24345 44.0597C9.5241 44.3291 9.85631 44.5384 10.22 44.675C10.4044 44.7324 10.5808 44.7963 10.8485 44.898ZM47.0275 32.6547C46.5378 31.9777 46.5622 31.0778 47.0014 30.5237C47.1221 30.3916 47.2345 30.252 47.3377 30.1057C47.5761 29.7189 47.4667 29.4271 47.0259 29.3468C46.7549 29.2976 46.4643 29.355 46.1867 29.3287C45.8227 29.296 45.6659 29.4697 45.6186 29.8025C45.6006 29.9353 45.5696 30.0664 45.5435 30.1975C45.3802 31.0614 45.1974 31.9253 45.0308 32.7891C44.91 33.412 45.0161 33.4792 45.6218 33.412C46.0494 33.3915 46.478 33.4168 46.9002 33.4874C47.2692 33.5268 47.6349 33.6513 48.0006 33.6513C49.1388 33.6159 50.2309 33.1918 51.0968 32.4492C51.9626 31.7065 52.5503 30.6897 52.763 29.5664C53.2658 26.788 52.136 24.2603 49.6871 22.9686C49.0086 22.5828 48.228 22.4167 47.452 22.4932C46.8561 22.5621 46.3435 22.19 45.9827 21.4933C45.7296 21.0016 45.9467 20.718 46.3516 20.5098C46.2178 20.018 45.8423 19.9115 45.457 19.7869C44.9051 19.6099 44.7615 19.2099 45.0423 18.7214C45.3068 18.2624 45.261 17.9772 44.879 17.6133C44.497 17.2494 44.11 16.9445 44.0317 16.3888C44.0202 16.3118 43.8994 16.1888 43.8325 16.1905C43.5235 16.1731 43.2137 16.2058 42.915 16.2872C42.515 16.4413 42.4399 16.7937 42.6488 17.1609C44.0676 19.6459 45.0847 22.2867 45.5108 25.1193C45.6545 26.07 46.0741 26.5716 46.9802 26.7404C46.9949 26.7404 47.0112 26.7552 47.0226 26.7503C47.1631 26.6913 47.4177 26.6372 47.4226 26.5667C47.4638 26.2209 47.4428 25.8706 47.3606 25.5323C47.2431 25.1553 46.9851 24.8226 46.8153 24.4587C46.7294 24.2897 46.7002 24.0974 46.732 23.9105C46.7637 23.7235 46.8548 23.5518 46.9916 23.421C47.1647 23.2473 47.4422 23.1768 47.6724 23.0604L47.7704 23.1965C47.6071 23.4882 47.4161 23.7735 47.2708 24.0767C47.2132 24.2103 47.2079 24.3607 47.2561 24.498C47.2806 24.5554 47.4945 24.5488 47.6202 24.5423C48.6226 24.4914 49.5451 24.7439 50.301 25.4045C51.9091 26.8093 51.5858 29.1747 50.7303 30.3582C50.2079 31.0794 49.5108 31.5482 48.6079 31.6187C48.3473 31.6286 48.0884 31.5722 47.8553 31.4548C47.4667 31.2679 47.2218 31.3483 47.1386 31.7826C47.0749 32.0367 47.0651 32.3023 47.0275 32.6547ZM6.61511 32.5875C6.60043 32.3488 6.57154 32.1113 6.52858 31.8761C6.3947 31.3253 6.20205 31.2647 5.71226 31.5384C5.54619 31.6319 5.35712 31.6762 5.16697 31.6663C4.73495 31.6308 4.3154 31.5035 3.93622 31.2926C3.55704 31.0818 3.22691 30.7923 2.96782 30.4434C2.33273 29.6074 2.20375 28.6403 2.28538 27.6354C2.40783 26.1044 3.35312 25.0127 4.84044 24.6849C5.34656 24.575 5.869 24.5423 6.47307 24.4619C6.28695 24.0505 6.08777 23.6128 5.88532 23.1637C6.59715 23.103 7.08857 23.6554 6.89755 24.2816C6.7996 24.6095 6.57103 24.8848 6.45184 25.2045C6.29909 25.5547 6.20001 25.9261 6.15797 26.306C6.13512 26.7601 6.36695 26.8863 6.78817 26.7388C7.02816 26.6552 7.26 26.5536 7.49346 26.4585C7.63406 26.4093 7.75744 26.3203 7.84871 26.2022C7.93998 26.0841 7.99521 25.9419 8.00774 25.793C8.416 22.7348 9.43141 19.79 10.9938 17.133C11.0414 17.0622 11.0722 16.9815 11.084 16.8969C11.0959 16.8124 11.0883 16.7262 11.0621 16.645C11.0358 16.5638 10.9914 16.4897 10.9324 16.4282C10.8733 16.3668 10.8011 16.3197 10.7212 16.2905C10.4506 16.2122 10.1701 16.1741 9.88853 16.1774C9.83369 16.184 9.7814 16.2044 9.73658 16.2368C9.69175 16.2692 9.65584 16.3125 9.63221 16.3626C9.51629 16.9363 9.0918 17.2724 8.71303 17.6494C8.36365 17.9985 8.33263 18.3247 8.59222 18.7313C8.85181 19.1378 8.78977 19.4574 8.35549 19.6918C8.1661 19.7951 7.90978 19.7869 7.73346 19.9033C7.55423 20.0421 7.40438 20.2154 7.29265 20.4131C7.26979 20.4491 7.37918 20.6344 7.45591 20.6704C7.89672 20.8655 7.81836 21.1622 7.62897 21.4736C7.47872 21.7483 7.28953 21.9995 7.06735 22.2195C6.87782 22.3968 6.63077 22.4993 6.37185 22.508C4.80616 22.3523 3.54414 22.9637 2.47966 24.0374C0.918871 25.6077 0.492753 27.5223 0.896012 29.6566C1.01159 30.2976 1.25548 30.9084 1.61292 31.452C1.97037 31.9956 2.43394 32.4608 2.97559 32.8194C3.51724 33.1779 4.12571 33.4225 4.7642 33.5381C5.40268 33.6538 6.0579 33.6382 6.69021 33.4923C7.14052 33.4087 7.60117 33.3971 8.05509 33.4579C8.53671 33.5055 8.69344 33.4333 8.60365 32.9547C8.39794 31.8548 8.15631 30.7598 7.90652 29.6763C7.8816 29.6054 7.83991 29.5416 7.78502 29.4905C7.73013 29.4394 7.66369 29.4025 7.59142 29.3828C7.2506 29.3468 6.90695 29.3468 6.56613 29.3828C6.2396 29.4156 6.08614 29.6418 6.21675 29.9549C6.32855 30.181 6.46606 30.3933 6.62654 30.5877C6.83879 30.878 6.95229 31.2293 6.95023 31.5895C6.94817 31.9496 6.83067 32.2996 6.61511 32.5875ZM43.8096 13.5464C43.8356 13.6498 43.8472 13.7563 43.8439 13.8628C43.7264 14.3464 43.2203 14.548 42.7011 14.3546C42.5177 14.2706 42.3159 14.235 42.115 14.2513C41.617 14.3398 41.3427 14.189 41.284 13.6743C41.25 13.3322 41.2461 12.9877 41.2725 12.6449C41.296 12.2379 41.463 11.8526 41.7436 11.5579C42.0242 11.2633 42.4001 11.0786 42.8039 11.0368C44.2211 10.8729 45.7982 12.0203 46.1296 13.4071C46.4218 14.6267 45.7182 15.5233 45.1925 16.4609C45.021 16.7658 44.9378 16.9609 45.1059 17.2543C45.4014 17.7674 45.6904 18.2854 45.9941 18.8198C46.6031 17.9018 47.2039 16.915 47.483 15.7659C47.9075 14.007 47.8096 12.3236 46.5851 10.8926C44.9672 9.00582 42.6423 8.90583 41.1223 10.7942C40.5836 11.4663 40.0056 12.0662 39.2007 12.4236C38.8269 12.5875 38.7975 12.8596 39.1126 13.0793C40.1144 13.7587 40.9769 14.6252 41.6529 15.6315C41.7377 15.7283 41.8426 15.8052 41.9602 15.8568C42.0779 15.9084 42.2054 15.9333 42.3337 15.9298C42.9523 15.8738 43.5658 15.7708 44.1688 15.6217C44.6717 15.502 45.0978 15.1889 45.1908 14.6595C45.5043 12.8793 44.2994 11.8318 42.9052 11.7089C42.7331 11.6905 42.5594 11.7207 42.4034 11.796C42.2475 11.8714 42.1156 11.9888 42.0225 12.1353C41.9294 12.2817 41.8788 12.4513 41.8764 12.625C41.874 12.7987 41.9198 12.9696 42.0088 13.1186C42.1993 13.4327 42.4196 13.7275 42.6668 13.9989C42.866 14.2382 43.0962 14.1464 43.2986 13.9874C43.4619 13.8644 43.6072 13.7251 43.8096 13.5464ZM7.71877 18.9116C7.76574 18.6487 7.83679 18.3908 7.93101 18.1411C8.03876 17.9182 8.26569 17.751 8.36528 17.5264C8.48773 17.2543 8.65916 16.9035 8.57916 16.6658C8.43712 16.238 8.11223 15.8725 7.88366 15.4709C7.74275 15.2429 7.63293 14.997 7.55714 14.7398C7.08531 12.853 8.62651 10.9843 10.6167 11.004C10.9321 10.9977 11.2431 11.0788 11.5156 11.2385C11.7881 11.3981 12.0114 11.6301 12.1611 11.9089C12.5089 12.5088 12.5073 13.1809 12.3342 13.8235C12.282 14.0185 11.9538 14.289 11.7742 14.271C11.4408 14.2465 11.1062 14.2969 10.7946 14.4185C10.6771 14.4621 10.5501 14.4732 10.4269 14.4505C10.3037 14.4277 10.1888 14.3721 10.0944 14.2894C10 14.2067 9.92958 14.1 9.89048 13.9805C9.85137 13.861 9.84506 13.7332 9.8722 13.6104C9.96036 13.6808 10.0355 13.7366 10.1122 13.8038C10.5906 14.248 10.8567 14.2267 11.2322 13.712C11.3285 13.5809 11.4314 13.4514 11.5277 13.3186C11.7987 12.9498 11.8673 12.5596 11.6273 12.1482C11.4036 11.763 11.0101 11.6023 10.5106 11.6794C9.92386 11.7766 9.38985 12.0777 9.00188 12.5302C8.61391 12.9826 8.39667 13.5576 8.38814 14.1546C8.37508 14.8021 8.64446 15.2758 9.22731 15.502C9.73215 15.6751 10.2489 15.8109 10.7734 15.9085C11.5293 16.0806 12.0338 15.7561 12.406 15.1004C12.8632 14.3119 13.5358 13.7235 14.2917 13.2186C14.8648 12.8367 14.8615 12.6186 14.264 12.3121C13.6432 11.9882 13.1043 11.5262 12.6885 10.9614C11.6665 9.6238 10.1089 9.09925 8.78487 9.65003C7.08367 10.3483 6.18736 11.6827 5.97349 13.4891C5.74492 15.4119 6.51225 17.056 7.46244 18.6395C7.54098 18.7365 7.62666 18.8274 7.71877 18.9116ZM21.841 48.9583C22.1398 49.2501 22.3945 49.4959 22.6459 49.7451C23.0083 50.1041 23.3887 50.1156 23.7038 49.7123C23.9059 49.4751 24.0431 49.1893 24.1022 48.8829C24.1724 48.2297 24.2035 47.5728 24.1952 46.9158C24.1952 46.7863 24.0695 46.5683 23.9748 46.5519C23.899 46.5562 23.8252 46.5775 23.7587 46.6144C23.6923 46.6513 23.635 46.7028 23.5912 46.765C23.392 47.042 23.2548 47.365 23.0508 47.6387C22.8189 47.9502 22.5022 48.1157 21.9977 47.9895C22.1806 47.8256 22.3145 47.7158 22.432 47.5945C22.5874 47.4566 22.7256 47.3003 22.8434 47.1289C23.0802 46.7273 22.9691 46.4995 22.5169 46.388C21.7218 46.1913 20.9284 45.9962 20.1349 45.7913C19.7251 45.6848 19.348 45.8569 19.3088 46.2716C19.2549 46.8404 19.2957 47.4191 19.2957 47.9879L20.61 47.7699L20.6475 47.8912C20.2263 48.3501 19.8084 48.8157 19.3806 49.2681C19.1929 49.4648 19.0182 49.4418 18.8908 49.1845C18.6753 48.7419 18.4794 48.2878 18.2264 47.8731C18.1186 47.6912 17.89 47.5797 17.717 47.4371C17.5896 47.6207 17.3774 47.7961 17.3545 47.9928C17.3167 48.4245 17.3222 48.8588 17.3709 49.2894C17.3956 49.4501 17.4759 49.597 17.5978 49.7041C18.4198 50.4462 19.375 51.0242 20.4124 51.4073C20.6338 51.4999 20.8747 51.5352 21.1132 51.51C21.3517 51.4848 21.58 51.3999 21.7773 51.263C21.8472 51.2156 21.9061 51.1536 21.9498 51.0811C21.9935 51.0086 22.021 50.9275 22.0304 50.8434C21.9902 50.547 21.9055 50.2585 21.779 49.9877C21.6976 49.826 21.6604 49.6454 21.6713 49.4646C21.6822 49.2837 21.7408 49.109 21.841 48.9583ZM34.3828 47.9748C34.3828 47.4158 34.4073 46.8814 34.3828 46.3487C34.3502 45.77 34.0808 45.5979 33.511 45.7487C32.649 45.9749 31.7919 46.2159 30.9249 46.429C30.5984 46.5077 30.5984 46.7093 30.6898 46.9289C30.7803 47.0998 30.8978 47.2548 31.0376 47.3879C31.2123 47.5814 31.4 47.76 31.5829 47.9453C31.5519 47.9977 31.5208 48.0502 31.4915 48.1092C31.2498 48.0108 30.9527 47.9682 30.7813 47.7994C30.5021 47.524 30.3192 47.1437 30.0662 46.8453C29.9359 46.7272 29.789 46.6289 29.6303 46.5536C29.5617 46.7044 29.4376 46.8552 29.436 47.006C29.4235 47.4987 29.4453 47.9916 29.5013 48.4813C29.5359 48.8347 29.6338 49.179 29.7903 49.4976C30.1298 50.127 30.5641 50.1647 31.067 49.6713C31.156 49.5707 31.2514 49.476 31.3527 49.3878C31.5062 49.2697 31.6792 49.173 31.8425 49.0599C31.8885 49.2822 31.9202 49.5072 31.9372 49.7336C31.9152 49.85 31.864 49.9589 31.7886 50.05C31.2988 50.8335 31.5862 51.4286 32.4972 51.5023C32.7033 51.5269 32.9122 51.4987 33.1045 51.4204C33.8637 51.0483 34.6082 50.6483 35.3543 50.2516C36.1706 49.8156 36.4547 49.1173 36.2718 48.2338C36.2147 47.9534 36.0383 47.6994 35.9159 47.4338C35.7167 47.6502 35.4685 47.842 35.3249 48.0895C35.0783 48.5255 34.8955 48.9993 34.6277 49.5828L32.951 47.8731L33.0114 47.7584L34.3828 47.9748ZM7.89182 27.7961C7.91631 26.7224 7.8804 26.6995 6.86653 27.1076L6.82408 27.1224C6.13511 27.3879 5.60125 27.1224 5.35472 26.4109C5.32922 26.3404 5.28933 26.276 5.2376 26.2218C5.18587 26.1676 5.12345 26.1248 5.05432 26.0962C4.8049 26.0146 4.53727 26.0072 4.28376 26.075C4.03025 26.1428 3.80172 26.2828 3.62577 26.4782C2.60374 27.5584 3.02169 29.7172 4.37188 30.3205C5.01677 30.6073 5.22737 30.5172 5.46084 29.8484C5.71226 29.1288 5.84288 29.037 6.59552 29.0435C7.8657 29.055 7.86733 29.055 7.89182 27.7961ZM45.7361 27.86C45.7361 27.9354 45.7361 28.0108 45.7361 28.0846C45.7182 28.9321 45.87 29.0779 46.7157 29.0288C46.7745 29.0288 46.8333 29.0157 46.8937 29.014C47.6692 28.978 47.8732 29.1107 48.1736 29.8336C48.4463 30.5008 48.6749 30.5975 49.3165 30.2615C49.5661 30.1317 49.788 29.954 49.9695 29.7386C50.5948 28.9878 50.6863 28.1141 50.4267 27.2043C50.1916 26.3765 49.4471 25.9143 48.6994 26.0569C48.5898 26.0649 48.4862 26.1097 48.405 26.1841C48.3239 26.2584 48.27 26.3579 48.252 26.4667C48.0888 27.1224 47.4814 27.3961 46.8561 27.1388C45.7769 26.6962 45.777 26.6962 45.7378 27.8666L45.7361 27.86ZM39.8995 11.1958L38.7795 11.0597L38.755 10.8876C39.1263 10.771 39.4905 10.6325 39.8456 10.4729C40.0089 10.391 40.1019 10.1746 40.226 10.0205C40.0738 9.92265 39.909 9.846 39.7362 9.79264C39.587 9.77317 39.4359 9.80807 39.3101 9.89099C38.8709 10.1942 38.3975 10.227 37.8767 10.2401C37.2579 10.2565 36.8971 9.96804 36.5314 9.53529C36.1657 9.10254 35.8245 8.62552 35.1502 8.61405C34.7535 8.61405 34.4514 8.796 34.4139 9.20416C34.4179 9.38274 34.4086 9.56136 34.3861 9.73855C34.298 10.0959 34.4351 10.2729 34.7518 10.4369C35.782 10.9647 36.7991 11.522 37.813 12.0761C38.5101 12.458 39.5485 12.0728 39.8995 11.1958ZM13.8183 11.186C13.9815 11.7761 14.7897 12.3711 15.2876 12.317C15.3891 12.2984 15.4864 12.2618 15.575 12.2088C16.7222 11.5838 17.8688 10.9565 19.0149 10.327C19.1194 10.2697 19.268 10.1516 19.2663 10.0631C19.2751 9.70553 19.24 9.34823 19.1619 8.99926C19.1253 8.91267 19.0702 8.83519 19.0005 8.77232C18.9308 8.70943 18.8482 8.66268 18.7586 8.63536C18.308 8.51733 17.2892 9.10745 17.0705 9.53856C16.989 9.71136 16.8655 9.86076 16.7113 9.97295C16.037 10.4139 15.335 10.2844 14.6297 10.0336C14.3272 9.92572 14.0158 9.84509 13.6991 9.79264C13.6383 9.79622 13.5796 9.81545 13.5284 9.84847C13.4772 9.88148 13.4353 9.92718 13.4068 9.98115C13.3985 10.0449 13.4053 10.1097 13.4266 10.1704C13.4478 10.2311 13.483 10.2858 13.5293 10.3303C13.6697 10.4098 13.8194 10.4715 13.975 10.5139C14.277 10.645 14.5758 10.7827 14.8762 10.9188L14.8419 11.045L13.8183 11.186ZM47.0651 35.7512C47.1034 35.9659 47.158 36.1775 47.2284 36.3839C47.5157 36.9904 47.8226 37.5871 48.1165 38.187C48.4757 38.9296 48.9328 39.1148 49.7034 38.8263C50.2765 38.6116 50.4512 37.7969 49.9744 37.4166C49.405 36.9601 48.8097 36.537 48.1916 36.1495C47.901 35.9676 47.5222 35.9069 47.0651 35.7512ZM6.6298 35.9561L6.49429 35.7921C6.16777 35.8954 5.789 35.9364 5.50492 36.12C4.82901 36.5495 4.19882 37.0412 3.54577 37.5199C3.45793 37.5975 3.40013 37.7037 3.38251 37.8198C3.36165 38.0206 3.40103 38.2231 3.49557 38.4013C3.59011 38.5794 3.73551 38.7252 3.91311 38.8198C4.46167 39.0411 5.05595 38.9837 5.26166 38.6067C5.74819 37.7379 6.17919 36.8396 6.6298 35.9561ZM13.5521 41.5048C13.5227 41.4355 13.486 41.3696 13.4428 41.3081C12.8958 40.6967 12.3538 40.082 11.7938 39.4837C11.6207 39.3001 11.4232 39.3197 11.2714 39.5459C11.1885 39.6702 11.0986 39.7895 11.002 39.9033C10.7881 40.1541 10.8387 40.3737 11.0885 40.5475C11.7416 40.9901 12.0077 41.6081 11.9848 42.3851C11.9734 42.7703 12.2297 42.9162 12.522 42.6703C12.8515 42.37 13.1612 42.0486 13.4493 41.7081C13.4932 41.6457 13.5279 41.5772 13.5521 41.5048ZM42.8252 40.1934C42.5884 39.9082 42.4219 39.6049 42.1721 39.4525C42.0644 39.3886 41.7248 39.6017 41.5648 39.7623C41.1174 40.218 40.7174 40.7213 40.2783 41.1884C40.084 41.395 40.017 41.5671 40.2326 41.7917C40.5003 42.0687 40.7468 42.3703 41.0342 42.626C41.0986 42.6779 41.1732 42.7157 41.253 42.7368C41.3329 42.758 41.4163 42.7621 41.4978 42.749C41.5762 42.7326 41.6415 42.4916 41.648 42.349C41.6758 41.6589 41.875 41.0655 42.4644 40.6393C42.6023 40.5023 42.725 40.3506 42.8301 40.1869L42.8252 40.1934ZM46.0904 34.3087C45.9941 34.1628 45.9272 33.948 45.7802 33.8612C45.6826 33.8074 45.5752 33.7738 45.4644 33.7623C45.3536 33.7509 45.2416 33.7618 45.1351 33.7945C45.0286 33.8272 44.9297 33.881 44.8442 33.9527C44.7587 34.0244 44.6884 34.1125 44.6374 34.2119C44.368 34.8053 44.1362 35.4184 43.919 36.0348C43.9134 36.1046 43.9254 36.1746 43.954 36.2385C43.9825 36.3024 44.0266 36.3581 44.0823 36.4003C44.2816 36.529 44.5103 36.6046 44.7468 36.62C44.9655 36.62 45.3165 36.538 45.3786 36.3937C45.6545 35.7348 45.8472 35.0496 46.0953 34.3021L46.0904 34.3087ZM8.19223 33.7677C7.65183 33.7677 7.49509 33.9202 7.60611 34.389C7.71713 34.8578 7.88693 35.2987 8.0306 35.7528C8.34243 36.7363 8.36692 36.7495 9.31711 36.4741C9.35887 36.4594 9.40213 36.4495 9.44608 36.4446C9.77261 36.4101 9.79057 36.2183 9.69261 35.9675C9.48853 35.4381 9.28119 34.9119 9.07874 34.3824C9.01091 34.2015 8.88967 34.0457 8.73125 33.9359C8.57282 33.826 8.38476 33.7673 8.19223 33.7677ZM6.20205 19.2361C5.95716 18.7722 5.79553 18.3936 5.57186 18.0543C5.21758 17.515 4.67391 17.3445 4.05841 17.4248C3.87022 17.4403 3.69375 17.5229 3.56083 17.6575C3.42791 17.7922 3.3473 17.9701 3.33352 18.1592C3.31067 18.3854 3.40373 18.7657 3.56046 18.8444C4.33759 19.2296 5.17676 19.3525 6.20205 19.2328V19.2361ZM47.6006 19.2181C48.0349 19.3361 49.2087 19.205 49.8242 18.9919C50.2063 18.8607 50.3842 18.6181 50.3271 18.2149C50.2699 17.8117 50.0855 17.5035 49.6544 17.4314C48.634 17.256 47.6186 18.1444 47.6006 19.2148V19.2181Z" fill="#AE894C"/>
<path d="M26.7934 45.759C16.9977 45.8049 8.89329 37.6941 8.8541 27.8179C8.83495 25.4446 9.283 23.0909 10.1725 20.892C11.0621 18.6932 12.3755 16.6924 14.0375 15.0047C15.6994 13.317 17.6771 11.9756 19.8569 11.0576C22.0368 10.1396 24.3757 9.66311 26.7395 9.65541C36.372 9.61771 44.7997 17.2859 44.7491 27.9146C44.7001 37.9613 36.3427 45.7754 26.7934 45.759ZM26.6302 11.1504C18.5454 10.9684 10.49 17.8465 10.3137 27.4081C10.139 36.9056 18.0915 45.0591 28.2546 44.2329C36.7361 43.5444 44.7131 35.5779 43.0609 24.9705C41.6503 15.9106 33.466 10.9537 27.1412 11.1799C27.2552 11.4597 27.3923 11.7294 27.551 11.9864C27.995 12.5847 28.4799 13.1535 28.9387 13.742C29.5264 14.5009 29.5264 15.0894 28.8652 15.7746C28.4016 16.2549 28.3281 16.6942 28.6481 17.2958C29.1036 18.1465 28.9468 18.5694 28.1322 19.0825C28.0571 19.1317 27.9787 19.1759 27.902 19.2202C27.1591 19.6611 27.0612 20.0496 27.5085 20.8053C27.8187 21.3315 28.1371 21.8561 28.4424 22.3855C28.5183 22.5398 28.5849 22.6985 28.6416 22.8609C27.8677 22.9773 27.5265 23.3674 27.7191 23.969C27.804 24.2329 28.0685 24.4608 28.2971 24.6509C28.5256 24.8411 28.7281 24.9787 28.5648 25.2968C27.6587 25.5115 27.5412 25.9278 28.1763 26.6278L28.2383 26.6934C28.6481 27.1146 28.3167 27.5392 28.2285 27.9539C28.199 28.096 28.1207 28.2231 28.0073 28.313C27.8939 28.4029 27.7526 28.4499 27.6081 28.4457C27.2522 28.4653 26.8946 28.4719 26.5371 28.4719C25.6506 28.4719 25.4285 28.2637 25.2702 27.3851C25.1983 26.9868 25.3845 26.7442 25.6342 26.4852C26.0734 26.0278 25.9755 25.5099 25.4498 25.3541C25.3245 25.3041 25.2038 25.2432 25.089 25.1722C25.1606 25.0172 25.247 24.8696 25.3469 24.7312C25.4516 24.6482 25.5649 24.5767 25.6849 24.5181C25.8476 24.3857 25.9682 24.2084 26.0318 24.008C26.0953 23.8076 26.099 23.5929 26.0424 23.3904C25.9363 23.0117 25.6391 22.9527 25.3077 22.9363C25.2104 22.9163 25.1148 22.8883 25.022 22.8527C25.4089 22.179 25.7681 21.5413 26.1338 20.9201C26.6432 20.0414 26.5763 19.7398 25.7404 19.1907C24.6465 18.4727 24.5698 18.1809 25.182 17.0499C25.453 16.5467 25.4089 16.2827 24.991 15.9024C24.1339 15.1386 24.0702 14.6124 24.7624 13.7059C25.2343 13.0896 25.742 12.5044 26.2204 11.8897C26.3752 11.6524 26.5127 11.4043 26.6318 11.1471L26.6302 11.1504ZM26.8326 12.2191C26.3069 12.8748 25.7877 13.4879 25.3077 14.1321C25.1806 14.3312 25.1095 14.5612 25.102 14.7976C25.0743 15.2254 25.3845 15.5385 25.8334 15.6041C26.3591 15.6828 26.5126 15.5779 26.6612 15.0402L26.862 14.3222C27.0049 14.5366 27.0944 14.7823 27.1232 15.0386C27.1771 15.4844 27.4154 15.65 27.853 15.6123C28.2905 15.5746 28.5762 15.3779 28.5713 14.932C28.5698 14.6406 28.4842 14.3559 28.3248 14.1124C27.8693 13.4649 27.355 12.8666 26.831 12.2191H26.8326ZM26.9028 18.5793C27.6767 18.5793 27.9314 18.3678 27.9314 17.7334C27.9314 16.9483 27.6195 16.5696 26.9665 16.563C26.1959 16.5548 25.8073 16.9581 25.8122 17.7613C25.8171 18.3121 26.1779 18.5825 26.9044 18.5793H26.9028Z" fill="#AE894C"/>
<path d="M27.4689 55.5954C27.5373 55.9029 27.5821 56.2153 27.6028 56.5297C27.6257 57.8149 27.624 59.1017 27.6142 60.3868C27.5826 60.6201 27.5279 60.8496 27.451 61.072C27.6551 61.3916 27.6534 61.8703 27.3775 62.0834C27.1016 62.2965 26.4665 62.2473 26.2445 62.0211C25.9979 61.7621 26.0077 61.2982 26.3359 60.8736C26.0546 60.7931 25.7666 60.7382 25.4755 60.7097C24.4176 60.6982 23.3531 60.7097 22.3033 60.7228C22.14 60.7228 21.9849 60.7097 21.8135 60.7015V59.6426C22.1923 59.7098 22.527 59.7721 22.8617 59.8278C22.9767 59.854 23.0949 59.8639 23.2127 59.8573C23.5735 59.818 23.9359 59.7721 24.2918 59.7032C24.3816 59.6852 24.4551 59.5656 24.5286 59.4934C24.4225 59.3869 24.3212 59.2 24.2021 59.1918C23.8184 59.1623 23.4298 59.1918 23.0429 59.2066C22.8666 59.2066 22.6902 59.2066 22.5155 59.2066C22.4568 59.2066 22.3523 59.1853 22.3523 59.1639C22.2836 58.7244 22.2433 58.2809 22.2315 57.8362C22.2315 57.7214 22.4584 57.5346 22.6037 57.5083C22.8839 57.4821 23.1659 57.4821 23.4461 57.5083C23.6966 57.528 23.9483 57.528 24.1988 57.5083C24.3049 57.492 24.3914 57.3444 24.4861 57.2477C24.38 57.1559 24.2723 56.9822 24.1596 56.9838C23.5392 56.9838 22.9204 57.0412 22.3 57.0625C22.1368 57.0625 21.8282 57.051 21.82 57.0035C21.7735 56.7251 21.7735 56.4409 21.82 56.1626C21.8315 56.0986 22.0894 56.0413 22.2347 56.0396C23.3221 56.0396 24.4094 56.0183 25.5 56.0527C25.9424 56.0675 26.2004 55.9331 26.2853 55.4888L26.1645 55.5052C26.1334 55.2462 26.1008 54.9856 26.0698 54.725C26.0698 54.6807 26.0845 54.6217 26.0616 54.5938C25.4379 53.8234 26.0616 53.171 26.2445 52.4629C26.313 52.2071 26.3783 51.8629 26.2657 51.6629C25.8069 50.8433 25.8379 50.009 25.9947 49.1385C26.1318 48.3747 26.2428 47.6059 26.362 46.8436C26.4028 46.583 26.5024 46.3732 26.7996 46.3683C27.0967 46.3634 27.2404 46.5224 27.2894 46.8322C27.4134 47.6895 27.5506 48.5452 27.7106 49.3959C27.8624 50.0869 27.7767 50.8091 27.4673 51.4449C27.3609 51.6335 27.3066 51.8472 27.31 52.0639C27.3135 52.2807 27.3745 52.4925 27.4869 52.6776C27.6141 52.9473 27.7195 53.2269 27.802 53.5136C27.8236 53.5534 27.8353 53.5978 27.8363 53.6431C27.7187 54.2447 27.6061 54.8528 27.4689 55.5954ZM25.3661 58.0542C24.8094 58.1034 24.3147 58.1542 23.8167 58.1853C23.5963 58.2001 23.3694 58.1509 23.149 58.1739C23.0576 58.1853 22.9776 58.3116 22.891 58.3853C22.9759 58.464 23.0543 58.6083 23.1425 58.6099C23.8739 58.6361 24.6118 58.6361 25.3661 58.6427V58.0542Z" fill="#AE894C"/>
<path d="M36.9291 50.9043C37.027 51.478 36.7299 51.8698 36.3919 52.2239C35.3082 53.3522 33.863 54.0608 32.3104 54.2253C31.6083 54.3297 30.8917 54.2685 30.2172 54.0466C29.5428 53.8246 28.9291 53.4481 28.4247 52.9468C28.3304 52.8544 28.2661 52.7355 28.2402 52.6058C28.5521 52.7123 28.8655 52.8156 29.1757 52.9336C30.4198 53.3893 31.6851 53.6795 33.0189 53.4516C34.503 53.1926 35.7258 52.5042 36.6254 51.2748C36.7234 51.1436 36.8279 51.0289 36.9291 50.9043Z" fill="#AE894C"/>
<path d="M25.5835 52.5678C24.7671 53.7464 22.4194 54.8053 19.7599 53.7923C18.2121 53.2038 16.4946 51.8826 16.635 50.8105C16.7596 50.9195 16.8769 51.0367 16.986 51.1613C17.6654 52.077 18.5989 52.7709 19.6694 53.1561C20.74 53.5413 21.8999 53.6007 23.0039 53.3267C23.7778 53.13 24.5369 52.8678 25.3043 52.6383C25.3827 52.6186 25.4659 52.5973 25.5835 52.5678Z" fill="#AE894C"/>
<path d="M25.8734 30.4894C25.9387 29.8338 25.9305 29.8338 25.3444 29.8338C24.9281 29.8338 24.5085 29.8518 24.0938 29.8141C22.7404 29.6944 21.8473 28.6666 21.88 27.3012C21.88 27.0684 21.911 26.834 21.9289 26.5586C21.7726 26.565 21.6167 26.5798 21.462 26.6029C20.1559 26.8881 19.1143 26.4226 18.3519 25.4062C16.6702 23.1622 16.5772 20.3837 18.2147 18.1052C19.2106 16.7168 20.6228 16.1529 22.324 16.4103C22.9392 16.4835 23.501 16.7967 23.8881 17.2823C24.5199 18.0921 24.3191 19.1019 23.4326 19.6215C23.3812 19.6546 23.3265 19.682 23.2693 19.7034C22.0612 20.1165 21.911 20.8427 22.4693 22.0524C22.8285 22.8327 23.1926 23.6031 24.0546 23.9719C24.1101 23.9965 24.1428 24.2654 24.084 24.344C23.7428 24.7948 23.3608 25.2145 23.0146 25.6554C22.7517 25.9758 22.5877 26.3662 22.5428 26.7789C22.4978 27.1915 22.5739 27.6083 22.7616 27.9782C23.0979 28.7207 23.7542 28.9764 24.5199 28.9797C26.0399 28.9896 27.5599 28.9797 29.0799 28.9797C29.8521 28.9797 30.4774 28.7076 30.8349 27.9765C31.0268 27.6254 31.1091 27.2245 31.0713 26.8258C31.0334 26.4271 30.8771 26.0491 30.6227 25.7406C30.2096 25.1981 29.7655 24.6768 29.3166 24.1195C29.3794 24.051 29.4507 23.9909 29.5288 23.9408C30.6717 23.3999 31.1206 22.3704 31.3835 21.2394C31.5337 20.5968 31.2806 20.187 30.6913 19.887C30.4921 19.787 30.2815 19.7051 30.0921 19.5887C29.2611 19.0789 29.0635 18.1134 29.6676 17.3512C30.3517 16.4808 31.3231 16.2496 32.3565 16.3562C34.2716 16.5562 35.4389 17.7429 36.1034 19.4707C36.8397 21.3787 36.6389 23.2327 35.5695 24.9719C34.7908 26.239 33.7116 26.9307 32.159 26.6012C31.9966 26.579 31.8331 26.5664 31.6692 26.5635C31.6692 26.9045 31.6692 27.1995 31.6692 27.4946C31.6447 28.842 30.7435 29.7665 29.3933 29.8174C28.977 29.8338 28.559 29.8272 28.1427 29.8338C27.9272 29.8338 27.7199 29.8338 27.715 30.1501C27.715 30.4288 27.8374 30.5222 28.0921 30.5189C28.1817 30.5118 28.2714 30.5311 28.3501 30.5747C28.4758 30.6583 28.6766 30.773 28.6766 30.8779C28.6766 31.0173 28.5509 31.2566 28.4366 31.2845C27.9746 31.4008 27.9599 31.7434 27.9223 32.1041C27.8883 32.4442 27.8338 32.7819 27.7591 33.1155C27.6497 33.5892 27.6888 33.663 28.1656 33.7236C28.269 33.7203 28.3718 33.7411 28.466 33.7843C28.5705 33.8662 28.6994 33.999 28.6978 34.1121C28.6834 34.1768 28.6525 34.2366 28.6081 34.2857C28.5637 34.3349 28.5075 34.3716 28.4448 34.3924C27.8472 34.4006 27.7917 34.7776 27.8113 35.2399C27.8472 35.9988 27.8635 36.7594 27.9076 37.5184C27.911 37.6995 27.9709 37.875 28.079 38.02C28.4056 38.3937 28.2423 38.6904 28.035 39.0445C27.4635 40.0165 27.6007 40.2493 28.1982 40.8591C28.2929 40.9558 28.3615 41.2509 28.2962 41.3099C27.7574 41.8344 27.6578 42.5409 27.4391 43.2031C27.3395 43.5097 27.3101 43.9392 26.848 43.9408C26.386 43.9424 26.3436 43.5294 26.2358 43.2179C26.0105 42.5721 25.8832 41.8918 25.3738 41.3705C25.2889 41.2836 25.3215 40.9279 25.4228 40.8394C26.1738 40.1837 26.035 39.8329 25.5713 39.0363C25.3607 38.6757 25.2448 38.4281 25.5452 38.0298C25.7493 37.7577 25.7983 37.3266 25.8146 36.9627C25.8456 36.2627 25.795 35.5579 25.795 34.8563C25.795 34.517 25.5452 34.5137 25.3248 34.4252C25.1621 34.3343 25.0109 34.2242 24.8742 34.0973C25.0315 33.9859 25.1951 33.8836 25.364 33.7908C25.4611 33.7524 25.565 33.7345 25.6693 33.7384C25.9779 33.7203 26.035 33.5433 25.986 33.2761C25.8962 32.7843 25.8358 32.2795 25.7183 31.791C25.6435 31.616 25.5282 31.4614 25.3819 31.3402C25.2415 31.1877 25.0783 31.0582 24.9248 30.9189C25.0965 30.7759 25.2782 30.6456 25.4685 30.5288C25.6004 30.4936 25.7372 30.4803 25.8734 30.4894ZM35.5532 21.4492C35.5532 21.3 35.5532 21.1492 35.5532 21.0001C35.4553 19.1641 34.1296 17.5889 32.4267 17.284C31.5827 17.1315 30.6308 17.7036 30.4676 18.4609C30.3566 18.9658 30.541 19.2166 31.0455 19.1871C31.2397 19.1614 31.4367 19.2045 31.6027 19.3089C31.7686 19.4133 31.8932 19.5726 31.9549 19.7592C32.061 20.0329 32.0806 20.3411 32.1818 20.6198C32.3074 21.0401 32.4811 21.4444 32.6994 21.8246C32.8773 22.0967 33.1973 22.2803 33.4667 22.4803C33.9434 22.8425 34.3026 23.2753 34.203 23.9129C34.0985 24.585 33.643 24.9915 33.0243 25.1882C32.8806 25.2341 32.6765 25.085 32.5002 25.0243C32.5802 24.8604 32.6635 24.6784 32.7451 24.5096C32.7614 24.4785 32.8251 24.4752 32.8659 24.4555C33.3704 24.2145 33.519 23.8605 33.2398 23.3736C33.0424 23.0615 32.7882 22.7895 32.4904 22.5721C32.1361 22.2983 31.8374 22.3753 31.5794 22.7491C31.3146 23.1114 31.0803 23.4952 30.879 23.8965C30.786 24.1217 30.7796 24.3734 30.861 24.603C31.4047 26.0078 33.5288 26.1521 34.3418 25.021C35.1108 23.949 35.5761 22.7852 35.5532 21.4508V21.4492ZM20.7388 25.8882L20.7943 25.7636C21.6971 25.8062 22.3551 25.4161 22.7534 24.6162C22.8042 24.52 22.8354 24.4147 22.8452 24.3064C22.855 24.198 22.8432 24.0888 22.8106 23.9851C22.5651 23.5087 22.2748 23.0569 21.9436 22.636C21.8693 22.5608 21.7778 22.5048 21.6772 22.4728C21.5765 22.4408 21.4696 22.4338 21.3657 22.4524C21.0933 22.5358 20.8489 22.6925 20.659 22.9054C20.469 23.1184 20.3408 23.3795 20.2881 23.6605C20.213 24.0539 20.3355 24.3473 20.7388 24.4604C21.0571 24.5522 21.2106 24.7555 21.0979 25.0587C20.969 25.4013 20.6702 25.2571 20.4547 25.1718C19.8979 24.9522 19.4751 24.5768 19.3984 23.9474C19.3216 23.3179 19.6514 22.8147 20.1543 22.4721C20.9102 21.959 21.4196 21.3492 21.4473 20.3657C21.4702 19.569 21.9208 19.0904 22.7012 19.2068C23.0163 19.2543 23.1208 19.074 23.1371 18.7871C23.1396 18.4486 23.0261 18.1196 22.8156 17.8551C22.6052 17.5907 22.3106 17.407 21.9812 17.3348C21.6084 17.2513 21.222 17.2509 20.8491 17.3336C20.4762 17.4163 20.1259 17.5801 19.8228 17.8134C17.0898 19.7903 17.8914 23.7949 19.6008 25.2849C19.9143 25.5718 20.3551 25.6931 20.7388 25.8898V25.8882Z" fill="#AE894C"/>
<path d="M31.166 18.3008C31.4811 17.8549 32.0068 17.6221 32.4329 17.7549C32.7595 17.8549 33.0174 18.05 32.9668 18.4237C32.9162 18.7975 32.624 18.8778 32.3007 18.8794C32.0779 18.8894 31.8564 18.8413 31.6575 18.74C31.4587 18.6386 31.2894 18.4873 31.166 18.3008Z" fill="#AE894C"/>
<path d="M21.42 18.8827C21.0036 18.8827 20.7261 18.6696 20.7408 18.345C20.7558 18.1722 20.8374 18.0121 20.9682 17.8989C21.099 17.7856 21.2687 17.728 21.4412 17.7385C21.8232 17.7385 22.4714 18.1188 22.4714 18.3352C22.4714 18.5516 21.8395 18.8761 21.42 18.8827Z" fill="#AE894C"/>
</svg>
